<?xml version="1.0" encoding="UTF-8" standalone="yes"?>
<svg version="1.1" width="64" height="64" color-interpolation="linearRGB"
     xmlns:svg="http://www.w3.org/2000/svg" xmlns="http://www.w3.org/2000/svg">
 <g>
  <path style="fill:#000000; fill-opacity:0.4078"
        d="M19 58L29 57L34 64C34 64 43 65 50 62C57 59 65.26 51.95 64 45C62 34 50 40 50 40H38V44H44L35 52H24L19 58z"
  />
  <path style="fill:none; stroke:#000000; stroke-width:4; stroke-linejoin:round"
        d="M20 16C16 22 17 27 17 31C17 35 18 36 18 36V50C18 50 10 56 20 56C28 56 24 38 24 38L36 43L35 54C35 54 25 63 39 63C47 63 41 35 41 35L40 30C40 30 44 34 46 34C48 34 50 34 50 34L52 40C52 40 44 46 56 46C64 46 54 30 54 30H52C52 30 52 24 52 20C52 16.81 50.72 11.81 46.16 8.08C58 16 58 2 58 2C58 2 52 10 42 6C36.12 3.65 24 10 20 16z"
  />
  <radialGradient id="gradient0" gradientUnits="userSpaceOnUse" cx="0" cy="0" r="64" gradientTransform="matrix(0.7031,0,0,0.7499,19,13)">
   <stop offset="0" stop-color="#dda771"/>
   <stop offset="0.9962" stop-color="#a97644"/>
  </radialGradient>
  <path style="fill:url(#gradient0)"
        d=""
  />
  <linearGradient id="gradient1" gradientUnits="userSpaceOnUse" x1="21.52" y1="-12.88" x2="53.86" y2="-5.66">
   <stop offset="0" stop-color="#875b2f"/>
   <stop offset="0.7706" stop-color="#a97644"/>
   <stop offset="1" stop-color="#c58a50"/>
  </linearGradient>
  <path style="fill:url(#gradient1)"
        d="M32 17L14 28L13 33C13 33 15 37 18 38C20.68 38.89 24 40 24 40L31 43L30 54C30 54 20 62 34 62C42 62 35 28 35 28C35 28 38 28 38 26C38 24 36.33 19.7 32 17z"
        transform="matrix(1,0,0,1,5,0)"
  />
  <radialGradient id="gradient2" gradientUnits="userSpaceOnUse" cx="0" cy="0" r="64" gradientTransform="matrix(0.7031,0,0,0.7499,19,13)">
   <stop offset="0" stop-color="#dda771"/>
   <stop offset="0.9962" stop-color="#a97644"/>
  </radialGradient>
  <path style="fill:url(#gradient2)"
        d="M40 30C40 30 43.15 30.94 46 30C49 29 50 22 50 20C50 14 46.16 8.08 46.16 8.08C46.16 8.08 41 6 37 7C29 9 21 19 21 19L32 17C36 22 37.1 24.21 38 26C39 28 39 29 39 29L40 30z"
  />
  <path style="fill:#d7a26e"
        d="M18 36V50C18 50 10 56 20 56C28 56 24 38 24 38C24 38 23 36 21 34C19 32 16 31 16 31L18 36z"
  />
  <linearGradient id="gradient3" gradientUnits="userSpaceOnUse" x1="42.37" y1="-14.97" x2="64.49" y2="-12.12">
   <stop offset="0" stop-color="#c28d59"/>
   <stop offset="0.8646" stop-color="#a26c38"/>
   <stop offset="1" stop-color="#b6783b"/>
  </linearGradient>
  <path style="fill:url(#gradient3)"
        d="M50 20C50 22 49 29 46 30C43.15 30.94 40 30 40 30C40 30 44 34 46 34C48 34 50 34 50 34L52 40C52 40 44 46 56 46C64 46 54 30 54 30H52C52 30 52 24 52 20C52 16.81 50.72 11.81 46.16 8.08C46.16 8.08 50 14 50 20z"
  />
  <linearGradient id="gradient4" gradientUnits="userSpaceOnUse" x1="19.03" y1="-15.59" x2="40.05" y2="-20.72">
   <stop offset="0" stop-color="#f4c597"/>
   <stop offset="1" stop-color="#daa470"/>
  </linearGradient>
  <path style="fill:url(#gradient4)"
        d="M20 16L21 20C21 20 29 8.99 37 7C41 6 46.16 8.08 46.16 8.08L42 6C36.12 3.65 24 10 20 16z"
  />
  <path style="fill:#daa470"
        d="M58 2C58 2 52 10 42 6L44 7C57 12 58 2 58 2z"
  />
  <linearGradient id="gradient5" gradientUnits="userSpaceOnUse" x1="42.37" y1="-14.97" x2="64.49" y2="-12.12">
   <stop offset="0" stop-color="#c28d59"/>
   <stop offset="0.8646" stop-color="#a26c38"/>
   <stop offset="1" stop-color="#b6783b"/>
  </linearGradient>
  <path style="fill:url(#gradient5)"
        d="M46.16 8.08C58 16 58 2 58 2C58 2 57 12 44.02 7.01L46.16 8.08z"
  />
  <path style="fill:none; stroke:#000000; stroke-width:4; stroke-linejoin:round"
        d="M16 6C16 6 13 4 8 6C2.74 8.1 2 14 2 14L12 12L16 6z"
  />
  <path style="fill:#f8cca1"
        d="M16 6C16 6 13 4 8 6C2.74 8.1 2 14 2 14L12 12L16 6z"
  />
  <path style="fill:none; stroke:#000000; stroke-width:4"
        d="M2 44L25 55V37L12 32V28L2 24V44z"
        transform="matrix(1.0384,0,0,1,4,1)"
  />
  <linearGradient id="gradient6" gradientUnits="userSpaceOnUse" x1="26.04" y1="16.06" x2="47.09" y2="36.56">
   <stop offset="0" stop-color="#ededed"/>
   <stop offset="1" stop-color="#a5a5a5"/>
  </linearGradient>
  <path style="fill:url(#gradient6)"
        d="M2 28V44L24 55V37L2 28z"
        transform="matrix(1.0416,0,0,1,3.9583,1)"
  />
  <path style="fill:#ffffff"
        d="M20 49L6 42L4 43L22 52V38L20 39V49z"
        transform="matrix(1.0416,0,0,1,3.9583,1)"
  />
  <linearGradient id="gradient7" gradientUnits="userSpaceOnUse" x1="49.12" y1="26.44" x2="50.2" y2="40.66">
   <stop offset="0" stop-color="#919191"/>
   <stop offset="1" stop-color="#b5b5b5"/>
  </linearGradient>
  <path style="fill:url(#gradient7)"
        d="M4 30V43L6 42V33L20 39L22 38L4 30z"
        transform="matrix(1.0416,0,0,1,3.9583,1)"
  />
  <linearGradient id="gradient8" gradientUnits="userSpaceOnUse" x1="22.89" y1="20.74" x2="24.62" y2="33.09">
   <stop offset="0" stop-color="#ffea00"/>
   <stop offset="1" stop-color="#ffb830"/>
  </linearGradient>
  <path style="fill:url(#gradient8)"
        d="M2 24V28L12 32V28L2 24z"
        transform="matrix(1.0416,0,0,1,3.9583,1)"
  />
  <linearGradient id="gradient9" gradientUnits="userSpaceOnUse" x1="71.62" y1="-3.78" x2="86.27" y2="27.99">
   <stop offset="0" stop-color="#ffffff"/>
   <stop offset="1" stop-color="#e9e9e9"/>
  </linearGradient>
  <path style="fill:url(#gradient9)"
        d="M6 34V42L20 49V40L6 34z"
        transform="matrix(1.0416,0,0,1,3.9583,1)"
  />
  <path style="fill:none; stroke:#000000; stroke-width:4; stroke-linejoin:round"
        d="M28.09 12.5C28.66 14.09 28.69 15.93 28 18C27.25 20.23 25.4 22.33 23.05 24.03C23.05 24.03 22 17 21 15L28.09 12.5z
           M20 6C23.93 7.3 27 9.47 28.09 12.5L21 15C22 17 23.05 24.03 23.05 24.03C19.76 26.41 15.5 28 12 28C6 28 4.46 24.13 6 18C8 10 11.51 3.17 20 6z"
  />
  <radialGradient id="gradient10" gradientUnits="userSpaceOnUse" cx="0" cy="0" r="64" gradientTransform="matrix(0.2047,0.1393,-0.3093,0.4543,8.9428,7.1471)">
   <stop offset="0" stop-color="#fdd6ab"/>
   <stop offset="1" stop-color="#c48b54"/>
  </radialGradient>
  <path style="fill:url(#gradient10)"
        d="M20 6C23.93 7.3 27 9.47 28.09 12.5L21 15C22 17 23.05 24.03 23.05 24.03C19.76 26.41 15.5 28 12 28C6 28 4.46 24.13 6 18C8 10 11.51 3.17 20 6z"
  />
  <path style="fill:#000000"
        d="M25 25L22 29C22 29 20 32 19 32C18 32 18.55 30.55 18 30C17 29 16 29 16 29L17 28L19 25H23C23 25 26.74 21.87 27 22C27.42 22.21 25 25 25 25z"
        transform="matrix(1.375,0,0,1,-8,-1)"
  />
  <radialGradient id="gradient11" gradientUnits="userSpaceOnUse" cx="0" cy="0" r="64" gradientTransform="matrix(0.2047,0.1393,-0.3093,0.4543,8.9428,7.1471)">
   <stop offset="0" stop-color="#fdd6ab"/>
   <stop offset="1" stop-color="#c48b54"/>
  </radialGradient>
  <path style="fill:url(#gradient11)"
        d="M12 28C12 26 17 24 17 24C17 24 21 21.76 21 24C21 26 14.24 28 12 28"
        transform="matrix(0.5317,0.1639,-0.4959,1.8494,24.7038,-24.597)"
  />
  <path style="fill:#99632d"
        d="M28.09 12.5C28.66 14.09 28.69 15.93 28 18C27.25 20.23 25.4 22.33 23.05 24.03C23.05 24.03 22 17 21 15L28.09 12.5z"
        transform="matrix(1,0,0,1.0867,0,-1.0843)"
  />
  <path style="fill:#000000"
        d="M20 14C20 14 22 16 24 18C25.05 19.05 30 24 30 24C30 24 33 20 32 16C30.78 11.14 24 8 24 8C24 8 33.01 10.08 34 16C35 22 31 26 31 26C31 26 26 22 24 20C22 18 20 14 20 14z"
  />
  <linearGradient id="gradient12" gradientUnits="userSpaceOnUse" x1="30.03" y1="-2.01" x2="39.41" y2="7.37">
   <stop offset="0" stop-color="#d4975b"/>
   <stop offset="1" stop-color="#a06f40"/>
  </linearGradient>
  <path style="fill:url(#gradient12)"
        d="M20 14L24 8C24 8 30.78 11.14 32 16C33 20 30 24 30 24C30 24 26 20 24 18C22 16 20 14 20 14z"
  />
  <path style="fill:#000000"
        d="M9 22H12V23L9 26L6 23V22H9z"
        transform="matrix(0.8109,0.192,-0.192,0.8109,6.8112,3.9765)"
  />
  <path style="fill:#000000"
        d="M9 14C8 14 7 15 7 16C7 17 8 18 9 18C10 18 11 17 11 16C11 15 10 14 9 14z
           M16 16C14.89 16 14 16.89 14 18C14 19.1 14.89 20 16 20C17.1 20 18 19.1 18 18C18 16.89 17.1 16 16 16z"
  />
 </g>
</svg>
