<?xml version="1.0" encoding="UTF-8" standalone="yes"?>
<svg version="1.1" width="64" height="64" color-interpolation="linearRGB"
     xmlns:svg="http://www.w3.org/2000/svg" xmlns="http://www.w3.org/2000/svg">
 <g>
  <linearGradient id="gradient0" gradientUnits="userSpaceOnUse" x1="-33" y1="-64" x2="33" y2="-64">
   <stop offset="0.343" stop-color="#000000"/>
   <stop offset="1" stop-color="#979797"/>
  </linearGradient>
  <path style="fill:url(#gradient0)"
        d="M0 20H23V24H0V20z
           M26 20V24H30V20H26z"
  />
  <linearGradient id="gradient1" gradientUnits="userSpaceOnUse" x1="-33" y1="-64" x2="33" y2="-64">
   <stop offset="0.343" stop-color="#000000"/>
   <stop offset="1" stop-color="#979797"/>
  </linearGradient>
  <path style="fill:url(#gradient1)"
        d="M0 20H23V24H0V20z
           M26 20V24H30V20H26z"
        transform="matrix(1,0,0,1,5,8)"
  />
  <linearGradient id="gradient2" gradientUnits="userSpaceOnUse" x1="-33" y1="-64" x2="33" y2="-64">
   <stop offset="0.343" stop-color="#000000"/>
   <stop offset="1" stop-color="#979797"/>
  </linearGradient>
  <path style="fill:url(#gradient2)"
        d="M0 20H23V24H0V20z
           M26 20V24H30V20H26z"
        transform="matrix(1,0,0,1,2,16)"
  />
 </g>
</svg>
