<?xml version="1.0" encoding="UTF-8" standalone="yes"?>
<svg version="1.1" width="64" height="64" color-interpolation="linearRGB"
     xmlns:svg="http://www.w3.org/2000/svg" xmlns="http://www.w3.org/2000/svg">
 <g>
  <path style="fill:#010101; fill-opacity:0.5725"
        d="M27 57L29 59L32.12 55.82L37 59L45.39 47.53L64 38L59 35L61 37L36 49L27 57z
           M58 34L62 31L58 29L55 32L58 34z"
  />
  <path style="fill:none; stroke:#010101; stroke-width:4"
        d="M6.24 30C6.24 30 11.87 36 16.87 42.5C21.87 49 26.24 55.74 26.24 55.74L59.11 36.87L32 15L6.24 30z"
  />
  <radialGradient id="gradient0" gradientUnits="userSpaceOnUse" cx="0" cy="0" r="64" gradientTransform="matrix(0.5714,0,0,0.3333,26,35)">
   <stop offset="0.4862" stop-color="#896eff"/>
   <stop offset="1" stop-color="#c0d5ff"/>
  </radialGradient>
  <path style="fill:url(#gradient0)"
        d="M6.24 30C6.24 30 11.87 36 16.87 42.5C21.87 49 26.24 55.74 26.24 55.74L59.11 36.87L32 15L6.24 30z"
  />
  <path style="fill:none; stroke:#010101; stroke-width:4"
        d="M2.61 30.87C2.61 30.87 10.95 36.26 19 41.87C27.44 47.75 35.74 52.74 35.74 52.74L58.11 26.37C58.11 26.37 45.44 20.7 35.37 15.37C30.18 12.62 26 9.37 26 9.37L2.61 30.87z"
  />
  <linearGradient id="gradient1" gradientUnits="userSpaceOnUse" x1="105.45" y1="-23.42" x2="119.92" y2="34.32">
   <stop offset="0" stop-color="#a5b1ff"/>
   <stop offset="0.7372" stop-color="#eaf1ff"/>
   <stop offset="1" stop-color="#b3b8ff"/>
  </linearGradient>
  <path style="fill:url(#gradient1)"
        d="M2.61 30.87C2.61 30.87 10.95 36.26 19 41.87C27.44 47.75 35.74 52.74 35.74 52.74L58.11 26.37C58.11 26.37 45.44 20.7 35.37 15.37C30.18 12.62 26 9.37 26 9.37L2.61 30.87z"
  />
  <linearGradient id="gradient2" gradientUnits="userSpaceOnUse" x1="-62.14" y1="43.08" x2="-58.5" y2="14.4">
   <stop offset="0" stop-color="#c70585"/>
   <stop offset="0.9607" stop-color="#ee068f"/>
  </linearGradient>
  <path style="fill:url(#gradient2)"
        d="M20.37 21.37C20.37 21.37 16.34 23.06 13.87 25.61C11.25 28.31 9.46 32.97 12.61 33.37C15.61 33.74 19.37 35.61 26.87 34C32.83 32.7 34.82 32.06 37 31.24C39.61 30.24 44.87 31.61 43.5 29.37C42.97 28.5 42.11 27.87 45.61 27.24C49.11 26.61 48.82 22.99 42 22.24C35.11 21.5 31.11 25 26.37 27C21.61 29 18.53 28.7 17.11 28.37C14 27.61 20.37 21.37 20.37 21.37z
           M40 33C37.87 33.11 37 35.11 40.5 35.61C44 36.11 42.11 32.87 40 33z
           M48.61 28.74C47.5 28.87 47.11 29.74 48.5 30.24C49.87 30.74 49.74 28.61 48.61 28.74z"
  />
  <path style="fill:none; stroke:#010000; stroke-width:2"
        d="M31 24V14"
  />
  <path style="fill:none; stroke:#010000; stroke-width:4; stroke-linejoin:round"
        d="M30 16V2C30 2 36 4 41 4C45 4 53 2 58 2V16C53 16 45 18 41 18C36 18 30 16 30 16z"
  />
  <radialGradient id="gradient3" gradientUnits="userSpaceOnUse" cx="0" cy="0" r="64">
   <stop offset="0.2974" stop-color="#e3f8ff"/>
   <stop offset="1" stop-color="#057ebd"/>
  </radialGradient>
  <path style="fill:url(#gradient3)"
        d="M30 16V2C30 2 36 4 41 4C45 4 53 2 58 2V16C53 16 45 18 41 18C36 18 30 16 30 16z"
  />
  <path style="fill:#ffffff"
        d="M44 6C44 6 44 3 41 7C40.17 8.09 40 10 40 10C40 10.5 40.12 12.12 41 13C41.87 13.87 43.5 14 44 14C44 14 44 17 47 13C47.85 11.85 48 10 48 10C48 9.5 48 8 47 7C46 6 44.5 6 44 6z"
        transform="matrix(1.5,0,0,1.375,-22.0015,-3.25)"
  />
  <radialGradient id="gradient4" gradientUnits="userSpaceOnUse" cx="0" cy="0" r="64">
   <stop offset="0.2974" stop-color="#e3f8ff"/>
   <stop offset="1" stop-color="#057ebd"/>
  </radialGradient>
  <path style="fill:url(#gradient4)"
        d="M44 7C34 6 40 1 41 10C41.22 11.98 42.02 12.71 44 13C51 14 49 20 47 10C46.8 9.01 46.98 7.29 44 7z"
  />
 </g>
</svg>
