<?xml version="1.0" encoding="UTF-8" standalone="yes"?>
<svg version="1.1" width="64" height="64" color-interpolation="linearRGB"
     xmlns:svg="http://www.w3.org/2000/svg" xmlns="http://www.w3.org/2000/svg">
 <g>
  <path style="fill:#010101; fill-opacity:0.5725"
        d="M27 57L29 59L32.13 55.83L37 59L45.39 47.54L64 38L59 35L61 37L36 49L27 57z
           M58 34L62 31L58 29L55 32L58 34z"
  />
  <path style="fill:none; stroke:#010101; stroke-width:4"
        d="M6.25 30C6.25 30 11.87 36 16.87 42.5C21.87 49 26.25 55.75 26.25 55.75L59.12 36.87L32 15L6.25 30z"
  />
  <radialGradient id="gradient0" gradientUnits="userSpaceOnUse" cx="0" cy="0" r="64" gradientTransform="matrix(0.5714,0,0,0.3333,26,35)">
   <stop offset="0.4886" stop-color="#7388ad"/>
   <stop offset="0.9948" stop-color="#cee5ff"/>
  </radialGradient>
  <path style="fill:url(#gradient0)"
        d="M6.25 30C6.25 30 11.87 36 16.87 42.5C21.87 49 26.25 55.75 26.25 55.75L59.12 36.87L32 15L6.25 30z"
  />
  <path style="fill:none; stroke:#010101; stroke-width:4"
        d="M2.62 30.87C2.62 30.87 10.95 36.26 19 41.87C27.44 47.75 35.75 52.75 35.75 52.75L58.12 26.37C58.12 26.37 45.44 20.7 35.37 15.37C30.18 12.62 26 9.37 26 9.37L2.62 30.87z"
  />
  <linearGradient id="gradient1" gradientUnits="userSpaceOnUse" x1="107.04" y1="-17.09" x2="118.33" y2="27.99">
   <stop offset="0" stop-color="#bfdef4"/>
   <stop offset="0.7424" stop-color="#ffffff"/>
   <stop offset="1" stop-color="#e7edfb"/>
  </linearGradient>
  <path style="fill:url(#gradient1)"
        d="M2.62 30.87C2.62 30.87 10.95 36.26 19 41.87C27.44 47.75 35.75 52.75 35.75 52.75L58.12 26.37C58.12 26.37 45.44 20.7 35.37 15.37C30.18 12.62 26 9.37 26 9.37L2.62 30.87z"
  />
  <path style="fill:none; stroke:#ff6500; stroke-width:1"
        d="M20 36L34.87 20.87
           M26 40L38.75 26.87"
        transform="matrix(1,0,0,1,7,4)"
  />
  <path style="fill:none; stroke:#647f00; stroke-width:1"
        d="M29 42L44 26.37
           M23 38L34.75 26.25
           M17 34L28.12 22.62"
        transform="matrix(1,0,0,1,6,6)"
  />
  <path style="fill:#010101"
        d="M4 33L14 40L23 31L13 25L4 33z"
        transform="matrix(1.3076,0,0,1.3999,-0.2307,-15.1999)"
  />
  <path style="fill:#010101"
        d="M4 33L14 40L23 31L13 25L4 33z"
        transform="matrix(1.3076,0,0,1.3999,9.7067,-25.0749)"
  />
  <path style="fill:#647f00"
        d="M4 33L14 40L23 31L13 25L4 33z"
        transform="matrix(1,0,0,1,4,-2.125)"
  />
  <path style="fill:#ff6500"
        d="M4 33L14 40L23 31L13 25L4 33z"
        transform="matrix(1,0,0,1,14,-12)"
  />
  <path style="fill:#ffffff"
        d="M25 20L26 21L31 16L30 15L25 20z"
        transform="matrix(1,0,0,1,-1.25,2)"
  />
  <path style="fill:#ffffff"
        d="M25 20L26 21L31 16L30 15L25 20z"
        transform="matrix(1,0,0,1,-10.875,11.875)"
  />
  <path style="fill:#ffffff"
        d="M25 20L26 21L31 16L30 15L25 20z"
        transform="matrix(-0.1643,-0.9863,0.9863,-0.1643,4.0226,60.4172)"
  />
 </g>
</svg>
