<?xml version="1.0" encoding="UTF-8" standalone="yes"?>
<svg version="1.1" width="64" height="64" color-interpolation="linearRGB"
     xmlns:svg="http://www.w3.org/2000/svg" xmlns="http://www.w3.org/2000/svg">
 <g>
  <path style="fill:#010101; fill-opacity:0.5725"
        d="M27 57L29 59L32.13 55.83L37 59L45.39 47.54L64 38L59 35L61 37L36 49L27 57z
           M58 34L62 31L58 29L55 32L58 34z"
  />
  <path style="fill:none; stroke:#010101; stroke-width:4"
        d="M6.25 30C6.25 30 11.87 36 16.87 42.5C21.87 49 26.25 55.75 26.25 55.75L59.12 36.87L32 15L6.25 30z"
  />
  <radialGradient id="gradient0" gradientUnits="userSpaceOnUse" cx="0" cy="0" r="64" gradientTransform="matrix(0.5714,0,0,0.3333,26,35)">
   <stop offset="1" stop-color="#eaeaea"/>
   <stop offset="0.4886" stop-color="#a3a3a3"/>
  </radialGradient>
  <path style="fill:url(#gradient0)"
        d="M6.25 30C6.25 30 11.87 36 16.87 42.5C21.87 49 26.25 55.75 26.25 55.75L59.12 36.87L32 15L6.25 30z"
  />
  <path style="fill:none; stroke:#010101; stroke-width:4"
        d="M2.62 30.87C2.62 30.87 10.95 36.26 19 41.87C27.44 47.75 35.75 52.75 35.75 52.75L58.12 26.37C58.12 26.37 45.44 20.7 35.37 15.37C30.18 12.62 26 9.37 26 9.37L2.62 30.87z"
  />
  <linearGradient id="gradient1" gradientUnits="userSpaceOnUse" x1="107.04" y1="-17.09" x2="118.33" y2="27.99">
   <stop offset="0" stop-color="#d6d6d6"/>
   <stop offset="0.7424" stop-color="#f5f5f5"/>
   <stop offset="1" stop-color="#e6e6e6"/>
  </linearGradient>
  <path style="fill:url(#gradient1)"
        d="M2.62 30.87C2.62 30.87 10.95 36.26 19 41.87C27.44 47.75 35.75 52.75 35.75 52.75L58.12 26.37C58.12 26.37 45.44 20.7 35.37 15.37C30.18 12.62 26 9.37 26 9.37L2.62 30.87z"
  />
  <linearGradient id="gradient2" gradientUnits="userSpaceOnUse" x1="-32" y1="-16" x2="48" y2="-16">
   <stop offset="1" stop-color="#1467ff"/>
   <stop offset="0.4035" stop-color="#06f8b7"/>
  </linearGradient>
  <path style="fill:url(#gradient2)"
        d="M8 30L30 44L48 24L26 14L8 30z"
  />
  <path style="fill:none; stroke:#010000; stroke-width:2"
        d="M31 24V14"
  />
  <path style="fill:none; stroke:#010000; stroke-width:4; stroke-linejoin:round"
        d="M30 16V2C30 2 36 4 41 4C45 4 53 2 58 2V16C53 16 45 18 41 18C36 18 30 16 30 16z"
  />
  <radialGradient id="gradient3" gradientUnits="userSpaceOnUse" cx="0" cy="0" r="64">
   <stop offset="0.2974" stop-color="#e3f8ff"/>
   <stop offset="1" stop-color="#057ebd"/>
  </radialGradient>
  <path style="fill:url(#gradient3)"
        d="M30 16V2C30 2 36 4 41 4C45 4 53 2 58 2V16C53 16 45 18 41 18C36 18 30 16 30 16z"
  />
  <path style="fill:#ffffff"
        d="M44 6C44 6 44 3 41 7C40.17 8.09 40 10 40 10C40 10.5 40.12 12.12 41 13C41.87 13.87 43.5 14 44 14C44 14 44 17 47 13C47.85 11.85 48 10 48 10C48 9.5 48 8 47 7C46 6 44.5 6 44 6z"
        transform="matrix(1.5,0,0,1.375,-22.0015,-3.25)"
  />
  <radialGradient id="gradient4" gradientUnits="userSpaceOnUse" cx="0" cy="0" r="64">
   <stop offset="0.2974" stop-color="#e3f8ff"/>
   <stop offset="1" stop-color="#057ebd"/>
  </radialGradient>
  <path style="fill:url(#gradient4)"
        d="M44 7C34 6 40 1 41 10C41.22 11.98 42.02 12.71 44 13C51 14 49 20 47 10C46.8 9.01 46.98 7.29 44 7z"
  />
 </g>
</svg>
