<?xml version="1.0" encoding="UTF-8" standalone="yes"?>
<svg version="1.1" width="64" height="64" color-interpolation="linearRGB"
     xmlns:svg="http://www.w3.org/2000/svg" xmlns="http://www.w3.org/2000/svg">
 <g>
  <path style="fill:#ffffff"
        d="M7.28 4.17C6.63 5.88 5.99 7.59 5.34 9.31C6.7 9.31 8.05 9.31 9.41 9.31C8.7 7.59 7.99 5.88 7.28 4.17V4.17z
           M15.01 14.23C13.83 14.23 12.64 14.23 11.46 14.23C11.1 13.36 10.74 12.48 10.38 11.61C8.41 11.61 6.44 11.61 4.47 11.61C4.14 12.48 3.81 13.36 3.48 14.23C2.32 14.23 1.16 14.23 0 14.23C1.77 9.82 3.55 5.42 5.32 1.02C6.59 1.02 7.87 1.02 9.14 1.02C11.09 5.42 13.05 9.82 15.01 14.23V14.23z
           M27.88 1.02C28.84 1.02 29.8 1.02 30.75 1.02C30.75 5.42 30.75 9.82 30.75 14.23C29.65 14.23 28.56 14.23 27.46 14.23C27.46 11.48 27.46 8.73 27.46 5.97C26.27 7.36 25.08 8.74 23.89 10.12C23.73 10.12 23.56 10.12 23.39 10.12C22.2 8.74 21.01 7.36 19.83 5.97C19.83 8.73 19.83 11.48 19.83 14.23C18.73 14.23 17.63 14.23 16.53 14.23C16.53 9.82 16.53 5.42 16.53 1.02C17.49 1.02 18.44 1.02 19.4 1.02C20.81 2.65 22.23 4.28 23.64 5.92C25.06 4.28 26.47 2.65 27.88 1.02V1.02z
           M36.56 11.81C37.27 11.81 37.99 11.81 38.71 11.81C42.02 11.81 43.01 9.56 43.01 7.62C43.01 5.35 41.79 3.44 38.67 3.44C37.97 3.44 37.26 3.44 36.56 3.44C36.56 6.23 36.56 9.02 36.56 11.81C36.56 11.81 36.56 11.81 36.56 11.81V11.81z
           M39.1 1.02C43.92 1.02 46.4 4.02 46.4 7.64C46.4 11.44 44 14.23 38.73 14.23C36.91 14.23 35.09 14.23 33.27 14.23C33.27 9.82 33.27 5.42 33.27 1.02C35.21 1.02 37.15 1.02 39.1 1.02V1.02z"
  />
  <path style="fill:#007f33"
        d="M52.95 4.15C51.57 2.76 50.18 1.38 48.8 0C53.84 0 58.88 0 63.92 0C63.92 5.03 63.92 10.07 63.92 15.11C62.53 13.73 61.15 12.34 59.76 10.96C59.76 8.69 59.76 6.42 59.76 4.15C57.49 4.15 55.22 4.15 52.95 4.15V4.15z
           M52.95 4.98C51.52 6.41 50.1 7.83 48.67 9.26C48.67 11.25 48.67 13.25 48.67 15.24C50.66 15.24 52.66 15.24 54.65 15.24C56.08 13.82 57.5 12.39 58.93 10.96C56.93 10.96 54.94 10.96 52.95 10.96C52.95 8.97 52.95 6.98 52.95 4.98V4.98z"
  />
 </g>
</svg>
