<?xml version="1.0" encoding="UTF-8" standalone="yes"?>
<svg version="1.1" width="64" height="64" color-interpolation="linearRGB"
     xmlns:svg="http://www.w3.org/2000/svg" xmlns="http://www.w3.org/2000/svg">
 <g>
  <path style="fill:#028450"
        d="M11.81 22.11C14.43 22.11 16.59 21.27 18.41 19.59C17.52 18.04 17.01 16.31 16.31 15C15.32 16.45 13.64 17.34 11.81 17.34C8.77 17.34 6.29 14.86 6.29 11.82C6.29 8.73 8.77 6.25 11.81 6.25C13.68 6.25 15.32 7.23 16.31 8.63C17.05 7.14 17.94 5.36 18.65 4.14C16.82 2.5 14.39 1.52 11.81 1.52C6.15 1.52 1.52 6.15 1.52 11.82C1.52 17.48 6.15 22.11 11.81 22.11V22.11V22.11V22.11z"
  />
  <path style="fill:#028450"
        d="M14.71 9.01C16.4 12.64 18.08 16.28 19.77 19.91C18.57 22.1 17.37 24.28 16.16 26.47C18.21 26.47 20.25 26.47 22.3 26.47C24.9 20.99 27.51 15.51 30.11 10.04C30.11 13.99 30.11 17.93 30.11 21.88C31.78 21.88 33.45 21.88 35.12 21.88C35.12 21.88 35.07 16.26 35.12 16.4C35.12 15.75 35.4 14.63 36.38 14.53C37.23 14.53 38.07 14.53 38.91 14.53C38.91 12.74 38.91 10.94 38.91 9.15C39.28 8.68 36.1 9.48 35.31 10.69C35.31 10.13 35.31 9.57 35.31 9.01C31.69 9.01 28.07 9.01 24.45 9.01C23.75 10.83 23.04 12.66 22.34 14.48C21.75 12.66 21.16 10.83 20.56 9.01C20.56 9.01 14.81 9.01 14.71 9.01V9.01V9.01V9.01z"
  />
  <path style="fill:#028450"
        d="M38.4 6.58C39.77 5.27 41.14 3.95 42.51 2.64C43.86 3.95 45.2 5.27 46.54 6.58C45.2 7.85 43.86 9.13 42.51 10.41C41.14 9.13 39.77 7.85 38.4 6.58V6.58V6.58z"
  />
  <path style="fill:#028450"
        d="M45.13 9.34C45.13 13.5 45.13 17.67 45.13 21.83C45.56 21.32 47.9 18.37 50.24 15.42C48.54 13.39 46.83 11.36 45.13 9.34V9.34V9.34V9.34z
           M39.75 21.93C39.75 17.7 39.75 13.47 39.75 9.24C40.64 10.09 41.53 10.93 42.42 11.77C43.31 10.94 44.2 10.12 45.09 9.29C45.1 9.27 45.12 9.26 45.13 9.24C47.44 9.24 49.75 9.24 52.06 9.24C52.58 9.88 53.09 10.52 53.61 11.16C54.54 9.99 55.15 9.24 55.1 9.24C55.06 9.24 62.31 9.24 62.31 9.24C60.56 11.33 58.82 13.42 57.07 15.51C58.8 17.65 60.53 19.79 62.26 21.93C60.06 21.93 57.86 21.93 55.66 21.93C55.01 21.16 54.35 20.4 53.7 19.63C53.06 20.4 52.42 21.16 51.78 21.93C47.77 21.93 43.76 21.93 39.75 21.93V21.93V21.93V21.93z"
  />
 </g>
</svg>
