<?xml version="1.0" encoding="UTF-8" standalone="yes"?>
<svg version="1.1" width="64" height="64" color-interpolation="linearRGB"
     xmlns:svg="http://www.w3.org/2000/svg" xmlns="http://www.w3.org/2000/svg">
 <g>
  <path style="fill:#0071c5"
        d="M30.31 37.45C17.78 38.61 4.73 36.79 2.91 27.01C2.01 22.18 4.21 17.07 7.13 13.89C7.13 13.33 7.13 12.76 7.13 12.19C1.88 16.8 -0.96 22.62 0.67 29.51C2.76 38.33 13.96 43.34 31.06 41.67C37.82 41.01 46.67 38.84 52.83 35.46C52.83 33.86 52.83 32.26 52.83 30.66C47.24 33.99 38 36.74 30.31 37.45
           M63.29 12.08C60.32 -2.41 32.16 -3.33 14.02 7.7C14.02 8.11 14.02 8.52 14.02 8.92C32.15 -0.38 57.85 -0.33 60.2 13.02C60.98 17.44 58.49 22.04 54.05 24.69C54.05 25.84 54.05 27 54.05 28.15C59.4 26.19 64.88 19.85 63.29 12.08
           M51.82 28.02C49.36 27.79 48.53 26.3 48.53 24.58C48.53 19.71 48.53 14.84 48.53 9.97C49.63 9.97 50.72 9.97 51.82 9.97C51.82 15.98 51.82 22 51.82 28.02V28.02V28.02z
           M12.73 28.3C10.27 28.06 9.44 26.57 9.44 24.85C9.44 21.67 9.44 18.49 9.44 15.3C10.54 15.3 11.63 15.3 12.73 15.3C12.73 19.63 12.73 23.97 12.73 28.3C12.73 28.3 12.73 28.3 12.73 28.3V28.3z
           M12.72 13.52C11.63 13.52 10.53 13.52 9.44 13.52C9.44 12.49 9.44 11.45 9.44 10.41C10.53 10.41 11.63 10.41 12.72 10.41C12.72 11.45 12.72 12.49 12.72 13.52V13.52V13.52z
           M32.39 28.15C29.73 28.15 28.61 26.3 28.61 24.48C28.61 20.25 28.61 16.02 28.61 11.8C29.69 11.8 30.78 11.8 31.86 11.8C31.86 12.97 31.86 14.13 31.86 15.3C32.68 15.3 33.49 15.3 34.31 15.3C34.31 16.18 34.31 17.05 34.31 17.93C33.49 17.93 32.68 17.93 31.86 17.93C31.86 20.04 31.86 22.16 31.86 24.27C31.86 25.02 32.21 25.43 32.99 25.43C33.43 25.43 33.87 25.43 34.31 25.43C34.31 26.34 34.31 27.24 34.31 28.15C33.67 28.15 33.03 28.15 32.39 28.15
           M38.38 22.74C38.38 24.4 39.41 25.63 41.26 25.63C42.7 25.63 43.42 25.23 44.25 24.4C44.92 25.04 45.59 25.68 46.26 26.32C44.97 27.6 43.62 28.37 41.24 28.37C38.12 28.37 35.14 26.67 35.14 21.71C35.14 17.48 37.74 15.08 41.16 15.08C44.63 15.08 46.64 17.89 46.64 21.56C46.64 21.96 46.64 22.35 46.64 22.74C43.89 22.74 41.13 22.74 38.38 22.74
           M41.02 17.78C39.91 17.78 39.05 18.35 38.69 19.13C38.48 19.59 38.4 19.95 38.38 20.52C40.05 20.52 41.72 20.52 43.39 20.52C43.32 19.13 42.69 17.78 41.02 17.78
           M18.88 17.93C18.88 21.34 18.88 24.75 18.88 28.16C17.79 28.16 16.7 28.16 15.62 28.16C15.62 23.88 15.62 19.59 15.62 15.3C17.86 15.3 20.1 15.31 22.34 15.31C25.2 15.31 26.17 17.32 26.17 19.15C26.17 22.16 26.17 25.16 26.17 28.16C25.09 28.16 24 28.16 22.92 28.16C22.92 25.16 22.92 22.17 22.92 19.17C22.92 18.4 22.52 17.93 21.57 17.93C20.67 17.93 19.77 17.93 18.88 17.93C18.88 17.93 18.88 17.93 18.88 17.93V17.93z"
  />
 </g>
</svg>
