<?xml version="1.0" encoding="UTF-8" standalone="yes"?>
<svg version="1.1" width="64" height="64" color-interpolation="linearRGB"
     xmlns:svg="http://www.w3.org/2000/svg" xmlns="http://www.w3.org/2000/svg">
 <g>
  <path style="fill:#0057a8"
        d="M0.06 0C1.53 0 2.99 0 4.45 0C4.45 1.43 4.45 2.87 4.45 4.3C2.99 4.3 1.53 4.3 0.06 4.3C0.06 2.87 0.06 1.43 0.06 0C0.06 0 0.06 0 0.06 0V0z"
        transform="matrix(1.143,0,0,1.143,0,0)"
  />
  <path style="fill:#0057a8"
        d="M0 6.62C1.5 6.62 3.01 6.62 4.52 6.62C4.52 12.74 4.52 18.87 4.52 24.99C3.01 24.99 1.5 24.99 0 24.99C0 18.87 0 12.74 0 6.62V6.62V6.62z"
        transform="matrix(1.143,0,0,1.143,0,0)"
  />
  <path style="fill:#0057a8"
        d="M38.43 21.38C41.12 21.38 43.82 21.38 46.51 21.38C46.35 18.82 44.61 17.42 42.55 17.42C40.19 17.42 38.66 19.09 38.43 21.38C38.43 22.58 38.43 23.79 38.43 25C38.61 26.8 39.85 29.36 42.54 29.36C44.36 29.36 45.57 28.45 46.12 27.04C47.62 27.04 49.12 27.04 50.62 27.04C49.84 30.72 46.42 33.31 42.55 33.31C38.59 33.31 34.42 30.27 33.75 25.2C33.75 25.2 32.27 25.24 31.17 25.24C28.51 25.24 26.79 24.19 26.79 20.44C26.79 17.03 26.79 13.62 26.79 10.2C25.86 10.2 24.93 10.2 24 10.2C24 9 24 7.8 24 6.59C25 6.59 26 6.59 26.99 6.59C26.99 4.4 26.99 2.2 26.99 0C28.39 0 29.8 0 31.2 0C31.2 2.2 31.2 4.4 31.2 6.59C32.33 6.59 33.46 6.59 34.6 6.59C34.6 7.79 34.6 8.98 34.6 10.18C33.51 10.18 32.43 10.18 31.34 10.18C31.34 13.13 31.34 16.09 31.34 19.04C31.34 20.82 31.94 21.43 33.61 21.43C33.67 21.43 33.74 21.43 33.8 21.43C34.37 17.08 37.91 13.67 42.54 13.67C47.1 13.67 50.58 17.36 51.1 22.2C51.22 22.2 51.34 22.2 51.46 22.2C51.46 14.8 51.46 7.4 51.46 0C52.94 0 54.42 0 55.9 0C55.9 8.33 55.9 16.66 55.9 25C50.08 25 44.25 25 38.43 25C38.43 23.79 38.43 22.58 38.43 21.38"
        transform="matrix(1.143,0,0,1.143,0,0)"
  />
  <path style="fill:#0057a8"
        d="M12.57 12.37C13.12 11.13 14.25 10.54 15.48 10.54C17.64 10.54 18.71 12.04 18.71 14.54C18.71 18.02 18.71 21.51 18.71 25C20.21 25 21.72 25 23.23 25C23.23 25 23.22 13.69 23.22 13.69C23.22 12.32 23.19 11.55 22.89 10.45C22.3 8.25 20.31 6.22 17.08 6.22C14.08 6.22 12.97 7.93 12.22 9.29C12.19 9.29 12.15 9.29 12.12 9.29C12.14 8.39 12.16 7.5 12.18 6.61C10.67 6.61 9.15 6.61 7.64 6.61C7.64 12.74 7.64 18.87 7.64 25C9.15 25 10.65 25 12.16 25C12.16 21.66 12.16 18.33 12.16 14.99C12.16 13.91 12.28 13.04 12.57 12.37"
        transform="matrix(1.143,0,0,1.143,0,0)"
  />
 </g>
</svg>
