<?xml version="1.0" encoding="UTF-8" standalone="yes"?>
<svg version="1.1" width="64" height="64" color-interpolation="linearRGB"
     xmlns:svg="http://www.w3.org/2000/svg" xmlns="http://www.w3.org/2000/svg">
 <g>
  <path style="fill:#ce4f32"
        d="M55.25 4.95C55.78 3.79 56.76 2.67 58.07 2.67C58.7 2.67 59.33 2.67 59.96 2.67C60.27 1.78 60.59 0.89 60.9 0C59.92 0 58.94 0 57.96 0C56.25 0 53.22 0.36 51.88 4.95C53 4.95 54.12 4.95 55.25 4.95V4.95V4.95z
           M51.73 5.51C50.6 9.98 52.31 11.22 54.92 11.22C55.51 11.22 56.11 11.22 56.7 11.22C57.11 10.14 57.51 9.05 57.91 7.97C57.19 7.97 56.48 7.97 55.76 7.97C54.55 7.97 54.63 6.87 55.05 5.5C53.94 5.5 52.84 5.5 51.73 5.51L51.73 5.51V5.51z
           M12.94 6.57C13.24 5.86 13.65 4.89 14.39 5C14.84 5.14 14.72 5.64 14.4 6.57C15.39 6.57 16.38 6.57 17.37 6.57C17.8 5.02 18.13 2.42 15.1 2.46C13.29 2.51 11.32 2.72 9.96 6.57C10.95 6.57 11.94 6.57 12.94 6.57V6.57V6.57z
           M14.19 7.13C13.77 8.22 13.16 8.99 12.66 8.89C12.21 8.8 12.46 7.78 12.71 7.13C11.73 7.13 10.76 7.13 9.79 7.13C9.27 9.04 8.99 11.23 12.11 11.38C15.47 11.54 16.73 8.55 17.15 7.29C17.17 7.23 17.18 7.18 17.2 7.13C16.2 7.13 15.2 7.13 14.19 7.13C14.19 7.13 14.19 7.13 14.19 7.13V7.13z
           M32.36 6.03C32.12 6.67 31.87 7.32 31.63 7.97C32.82 7.97 34.01 7.97 35.2 7.97C35.34 7.62 35.48 7.27 35.62 6.92C36.25 5.14 36.56 2.62 33.73 2.3C30.89 1.99 29.01 4.66 28.59 6.5C28.17 8.34 28.01 11.22 31.58 11.22C32.38 11.22 33.18 11.22 33.99 11.22C34.3 10.36 34.62 9.51 34.93 8.65C34.18 8.65 33.43 8.65 32.68 8.65C31.37 8.65 30.74 8.18 31.31 6.61C31.89 5.03 32.57 4.82 32.84 4.87C33.1 4.93 33.46 5.08 33.04 6.03C32.82 6.03 32.59 6.03 32.36 6.03C32.36 6.03 32.36 6.03 32.36 6.03C32.36 6.03 32.36 6.03 32.36 6.03V6.03z
           M38.03 2.67C36.94 5.52 35.86 8.37 34.78 11.22C35.82 11.22 36.87 11.22 37.92 11.22C38.34 10.14 38.76 9.05 39.18 7.97C39.65 6.66 41.02 5.87 42.49 5.82C42.92 4.68 43.36 3.54 43.8 2.41C43.17 2.41 41.6 2.77 40.65 3.88C40.81 3.47 40.97 3.07 41.12 2.67C40.09 2.67 39.06 2.67 38.03 2.67C38.03 2.67 38.03 2.67 38.03 2.67C38.03 2.67 38.03 2.67 38.03 2.67V2.67z
           M45.32 0C46.39 0 47.45 0 48.52 0C50.57 0 52.98 0.99 51.61 4.35C50.25 7.71 48.42 8.18 46.95 8.18C46.61 8.18 46.28 8.18 45.95 8.18C46.26 7.3 46.58 6.43 46.89 5.56C47.94 5.5 48.47 4.51 48.62 4.03C48.78 3.56 48.99 2.67 47.79 2.67C47.68 2.67 47.58 2.67 47.47 2.67C46.39 5.52 45.3 8.37 44.22 11.22C43.17 11.22 42.12 11.22 41.07 11.22C42.49 7.48 43.9 3.74 45.32 0V0V0z
           M18.3 2.67C19.23 2.67 20.16 2.67 21.08 2.67C21 3.75 20.91 4.84 20.82 5.92C21.42 4.84 22.01 3.75 22.61 2.67C23.53 2.67 24.46 2.67 25.39 2.67C25.33 3.74 25.28 4.8 25.23 5.87C25.89 4.8 26.56 3.74 27.22 2.67C28.2 2.67 29.18 2.67 30.16 2.67C28.43 5.52 26.7 8.37 24.97 11.22C23.95 11.22 22.94 11.22 21.92 11.22C21.98 10.08 22.03 8.95 22.08 7.81C21.36 8.95 20.65 10.08 19.93 11.22C19.07 11.22 18.22 11.22 17.36 11.22C17.67 8.37 17.99 5.52 18.3 2.67H18.3V2.67z
           M4.24 0C5.31 0 6.38 0 7.44 0C9.49 0 11.9 0.99 10.54 4.35C9.18 7.71 7.34 8.18 5.87 8.18C5.54 8.18 5.21 8.18 4.87 8.18C5.19 7.3 5.5 6.43 5.82 5.56C6.87 5.5 7.39 4.51 7.55 4.03C7.71 3.56 7.92 2.67 6.71 2.67C6.61 2.67 6.5 2.67 6.4 2.67C5.31 5.52 4.23 8.37 3.14 11.22C2.09 11.22 1.04 11.22 -0 11.22C1.41 7.48 2.83 3.74 4.24 0H4.24V0z"
        transform="matrix(1.0492,0,0,1.0492,0,0)"
  />
 </g>
</svg>
