<?xml version="1.0" encoding="UTF-8" standalone="yes"?>
<svg version="1.1" width="64" height="64" color-interpolation="linearRGB"
     xmlns:svg="http://www.w3.org/2000/svg" xmlns="http://www.w3.org/2000/svg">
 <g>
  <path style="fill:#ffffff"
        d="M13 0V37H50V0"
  />
  <path style="fill:#f6b21a"
        d="M33.69 11.81C33.69 17.09 30.41 21.9 24 23L33 34L50 10V0H24C30.51 1.09 33.69 6.44 33.69 11.82C33.69 11.82 33.69 11.82 33.69 11.81V11.81z"
  />
  <path style="fill:#2a3172"
        d="M15.24 18.31C17.35 18.31 19.45 18.31 21.56 18.31C26.07 18.31 28.38 15.02 28.38 11.84C28.38 8.65 26.17 5.36 21.56 5.36C18.68 5.36 15.87 5 13 5V37H29C29 37 19.65 26.18 15.14 20.8C15.14 19.97 15.14 19.14 15.14 18.31C15.17 18.31 15.21 18.31 15.24 18.31V18.31z
           M50 19V37C50 37 38 37 37.41 37.03C38 37 50 19 50 19z"
  />
  <path style="fill:#ffffff"
        d="M14.94 50.29C15.61 50.29 16.28 50.29 16.94 50.29C16.94 47.21 16.94 44.12 16.94 41.03C16.28 41.03 15.61 41.03 14.94 41.03C14.94 44.12 14.94 47.21 14.94 50.29V50.29z
           M21.15 46.56C20.45 46.56 19.75 46.27 19.15 45.67C18.64 45.17 18.24 44.47 18.24 43.67C18.24 42.98 18.55 42.28 19.15 41.68C19.65 41.18 20.35 40.79 21.15 40.79C24.66 40.79 28.17 40.79 31.68 40.79C31.68 41.45 31.68 42.11 31.68 42.78C28.17 42.78 24.66 42.78 21.15 42.78C20.95 42.78 20.75 42.88 20.55 42.98C20.35 43.18 20.35 43.27 20.35 43.58C20.35 43.87 20.45 43.97 20.55 44.17C20.75 44.37 20.85 44.37 21.15 44.37C23.69 44.37 26.23 44.37 28.78 44.37C29.48 44.37 30.18 44.67 30.78 45.27C31.28 45.76 31.68 46.46 31.68 47.26C31.68 48.05 31.38 48.65 30.78 49.25C30.28 49.75 29.58 50.14 28.78 50.14C25.27 50.14 21.76 50.14 18.25 50.14C18.25 49.48 18.25 48.82 18.25 48.16C21.76 48.16 25.27 48.16 28.78 48.16C28.98 48.16 29.18 48.05 29.38 47.96C29.58 47.76 29.58 47.66 29.58 47.36C29.58 47.16 29.48 46.96 29.38 46.76C29.18 46.56 29.07 46.56 28.78 46.56C26.23 46.56 23.69 46.56 21.15 46.56V46.56z
           M37.4 40.96C40.27 40.96 43.15 40.96 46.02 40.96C46.02 41.63 46.02 42.29 46.02 42.96C43.15 42.96 40.27 42.96 37.4 42.96C36.7 42.96 35.99 43.25 35.49 43.65C34.99 44.15 34.79 44.75 34.79 45.54C34.79 46.24 35.09 46.94 35.49 47.43C35.99 47.93 36.59 48.13 37.4 48.13C40.27 48.13 43.15 48.13 46.02 48.13C46.02 48.8 46.02 49.46 46.02 50.12C43.15 50.12 40.27 50.12 37.4 50.12C36.09 50.12 35.09 49.63 34.09 48.73C33.18 47.83 32.68 46.74 32.68 45.45C32.68 44.15 33.18 43.16 34.09 42.16C34.99 41.36 35.99 40.96 37.4 40.96C37.4 40.96 37.4 40.96 37.4 40.96V40.96z
           M2.1 42.94C4.94 42.94 7.78 42.94 10.62 42.94C10.82 42.94 11.02 43.04 11.23 43.14C11.43 43.34 11.43 43.44 11.43 43.73C11.43 43.93 11.32 44.13 11.23 44.33C11.02 44.53 10.92 44.53 10.62 44.53C7.78 44.53 4.94 44.53 2.1 44.53C2.1 44 2.1 43.47 2.1 42.94V42.94z
           M13.43 50.2C12.53 48.98 11.62 47.75 10.72 46.52C11.43 46.42 12.03 46.22 12.53 45.63C13.03 45.13 13.43 44.44 13.43 43.64C13.43 42.94 13.13 42.24 12.53 41.64C12.03 41.15 11.32 40.75 10.52 40.75C7.01 40.75 3.5 40.75 -0 40.75C-0 43.84 -0 46.92 -0 50.01C0.66 50.01 1.33 50.01 2 50.01C2 48.78 2 47.56 2 46.33C4.07 46.33 6.14 46.33 8.21 46.33C9.11 47.56 10.02 48.78 10.92 50.01C11.76 50.07 12.59 50.14 13.43 50.2V50.2z"
  />
  <path style="fill:#f6b21a"
        d="M56.16 50.29C54.35 47.21 52.55 44.12 50.74 41.03C51.51 41.03 52.28 41.03 53.05 41.03C54.48 43.49 55.92 45.95 57.36 48.4C58.8 45.95 60.23 43.49 61.67 41.03C62.44 41.03 63.21 41.03 63.98 41.03C62.17 44.12 60.37 47.21 58.56 50.29C57.76 50.29 56.96 50.29 56.16 50.29V50.29z
           M47.33 46.47C48.63 46.47 49.94 46.47 51.24 46.47C51.24 45.87 51.24 45.28 51.24 44.68C49.94 44.68 48.63 44.68 47.33 44.68C47.33 45.28 47.33 45.87 47.33 46.47V46.47z"
  />
 </g>
</svg>
