<?xml version="1.0" encoding="UTF-8" standalone="yes"?>
<svg version="1.1" width="64" height="64" color-interpolation="linearRGB"
     xmlns:svg="http://www.w3.org/2000/svg" xmlns="http://www.w3.org/2000/svg">
 <g>
  <path style="fill:#187abf"
        d="M50.43 19.16C50.43 19.16 47.28 20.07 50.44 19.39C53.6 18.72 55.05 19.17 54.11 20.76C53.99 20.96 53.85 21.16 53.7 21.34C53.49 21.59 53.28 21.83 53.05 22.06C52.03 23.11 50.48 24.35 48.57 25.69C47.46 23.77 46.35 21.84 45.24 19.92C42.92 23.93 40.6 27.95 38.28 31.96C37.18 32.57 36.07 33.15 34.95 33.73C37.61 29.13 40.27 24.52 42.92 19.92C39.85 19.92 36.78 19.92 33.71 19.92C29.95 26.44 26.18 32.96 22.42 39.48C22.36 39.58 22.31 39.68 22.25 39.77C22.25 39.78 22.24 39.79 22.24 39.79C23.04 39.51 23.83 39.21 24.62 38.92C24.65 38.91 24.67 38.9 24.69 38.89C26.41 38.25 28.11 37.58 29.81 36.88C31.28 36.28 32.74 35.66 34.2 35.03C45.22 30.24 55.27 24.76 59.34 21.11C59.53 20.95 59.71 20.78 59.88 20.6C63.39 17.11 59.39 16.66 50.43 19.16V19.16V19.16z
           M21.83 40.51C21.56 40.96 21.3 41.41 21.04 41.87C24.11 41.87 27.18 41.87 30.25 41.87C31.22 40.2 32.18 38.53 33.14 36.86C29.59 38.15 25.91 39.36 22.25 40.39C22.11 40.43 21.97 40.47 21.83 40.51V40.51V40.51z
           M13.22 34.89C9.46 37.03 6.45 39.02 4.63 40.65C0.2 44.61 4.16 45.22 13.54 42.61C13.54 42.61 17.5 41.51 13.53 42.37C9.57 43.23 8.33 42.33 10.9 39.71C11.73 38.86 12.91 37.88 14.34 36.83C14.14 36.48 13.94 36.14 13.74 35.79C13.57 35.49 13.39 35.19 13.22 34.89V34.89V34.89z
           M32.57 41.86C35.64 41.86 38.71 41.86 41.78 41.86C42.93 39.87 44.07 37.87 45.22 35.87C46.38 37.87 47.53 39.86 48.69 41.86C51.76 41.86 54.83 41.86 57.91 41.86C55.49 37.68 53.08 33.5 50.66 29.32C46.56 31.43 41.53 33.68 36.09 35.76C34.91 37.8 33.74 39.83 32.57 41.86L32.57 41.86V41.86z
           M31.4 19.92C28.33 19.92 25.26 19.92 22.19 19.92C20.27 23.24 18.35 26.57 16.43 29.9C16.05 29.23 15.67 28.56 15.28 27.9C16.05 26.57 16.82 25.24 17.59 23.91C16.82 22.58 16.05 21.25 15.28 19.92C12.21 19.92 9.14 19.92 6.06 19.92C7.11 21.73 8.15 23.54 9.2 25.35C9.2 25.35 9.2 25.34 9.2 25.34C10.73 28 12.26 30.65 13.79 33.3C14.14 33.9 14.49 34.51 14.84 35.11C15.39 36.07 15.95 37.04 16.51 38C16.51 38 16.51 38 16.51 38C17.25 39.29 17.99 40.58 18.73 41.86C22.96 34.55 27.18 27.23 31.4 19.92L31.4 19.92V19.92z"
        transform="matrix(1.1029,0,0,1.1029,-3.2903,-19.8067)"
  />
 </g>
</svg>
