<?xml version="1.0" encoding="UTF-8" standalone="yes"?>
<svg version="1.1" width="64" height="64" color-interpolation="linearRGB"
     xmlns:svg="http://www.w3.org/2000/svg" xmlns="http://www.w3.org/2000/svg">
 <g>
  <path style="fill:#00008b"
        d="M0 8H64V56H0V8z"
  />
  <path style="fill:#ffffff"
        d="M95.23 49.97L94.35 52.71L91.66 51.69L93.25 54.09L90.78 55.56L93.64 55.81L93.25 58.66L95.23 56.57L97.22 58.66L96.82 55.81L99.69 55.56L97.21 54.09L98.81 51.69L96.11 52.71L95.23 49.97z"
        transform="matrix(1.3452,0,0,1.3452,-112.3405,-31.2534)"
  />
  <path style="fill:#ffffff"
        d="M95.23 49.97L94.35 52.71L91.66 51.69L93.25 54.09L90.78 55.56L93.64 55.81L93.25 58.66L95.23 56.57L97.22 58.66L96.82 55.81L99.69 55.56L97.21 54.09L98.81 51.69L96.11 52.71L95.23 49.97z"
        transform="matrix(0.7842,0,0,0.7698,-27.4158,-22.4976)"
  />
  <path style="fill:#ffffff"
        d="M95.23 49.97L94.35 52.71L91.66 51.69L93.25 54.09L90.78 55.56L93.64 55.81L93.25 58.66L95.23 56.57L97.22 58.66L96.82 55.81L99.69 55.56L97.21 54.09L98.81 51.69L96.11 52.71L95.23 49.97z"
        transform="matrix(0.672,0,0,0.6547,-8.2308,-8.7465)"
  />
  <path style="fill:#ffffff"
        d="M95.23 49.97L94.35 52.71L91.66 51.69L93.25 54.09L90.78 55.56L93.64 55.81L93.25 58.66L95.23 56.57L97.22 58.66L96.82 55.81L99.69 55.56L97.21 54.09L98.81 51.69L96.11 52.71L95.23 49.97z"
        transform="matrix(0.672,0,0,0.6547,-16.2308,10.2534)"
  />
  <path style="fill:#ffffff"
        d="M95.23 49.97L94.35 52.71L91.66 51.69L93.25 54.09L90.78 55.56L93.64 55.81L93.25 58.66L95.23 56.57L97.22 58.66L96.82 55.81L99.69 55.56L97.21 54.09L98.81 51.69L96.11 52.71L95.23 49.97z"
        transform="matrix(0.3354,0,0,0.321,19.3239,15.8293)"
  />
  <path style="fill:#ffffff"
        d="M95.23 49.97L94.35 52.71L91.66 51.69L93.25 54.09L90.78 55.56L93.64 55.81L93.25 58.66L95.23 56.57L97.22 58.66L96.82 55.81L99.69 55.56L97.21 54.09L98.81 51.69L96.11 52.71L95.23 49.97z"
        transform="matrix(0.5598,0,0,0.5512,-13.0459,1.327)"
  />
  <path style="fill:#ffffff"
        d="M64 12V17L10 52H0V47L54 12H64z
           M0 12H8L64 46V52H56L0 18V12z"
        transform="matrix(0.5,0,0,0.5749,0,1.1)"
  />
  <path style="fill:#cc0000"
        d="M64 12L7 52H0L57 12H64z
           M0 12L64 48V52L0 16V12z"
        transform="matrix(0.5,0,0,0.5749,0,1.1)"
  />
  <path style="fill:#ffffff"
        d="M0 26H26V12H38V26H64V38H38V52H26V38H0V26z"
        transform="matrix(0.5,0,0,0.5749,0,1.1)"
  />
  <path style="fill:#cc0000"
        d="M0 36V28H28V12H36V28H64V36H36V52H28V36H0z"
        transform="matrix(0.5,0,0,0.5749,0,1.1)"
  />
  <path style="fill:none; stroke:#7e7e7e; stroke-width:1"
        d="M1 9H63V55H1V9z"
  />
 </g>
</svg>
