<?xml version="1.0" encoding="UTF-8" standalone="yes"?>
<svg version="1.1" width="64" height="64" color-interpolation="linearRGB"
     xmlns:svg="http://www.w3.org/2000/svg" xmlns="http://www.w3.org/2000/svg">
 <g>
  <path style="fill:#5881bb"
        d="M1 9H63V55H1V9z"
        transform="matrix(1.0322,0,0,1.0434,-1.0322,-1.3913)"
  />
  <path style="fill:#f9d615"
        d="M1 9H63V55H1V9z"
        transform="matrix(1.0322,0,0,0.0869,-1.0322,35.2173)"
  />
  <path style="fill:#f9d615"
        d="M1 9H63V55H1V9z"
        transform="matrix(1.0322,0,0,0.0869,-1.0322,43.2173)"
  />
  <path style="fill:none; stroke:#7e7e7e; stroke-width:1"
        d="M1 9H63V55H1V9z"
  />
  <path style="fill:#ffffff"
        d="M12 12L9 19L2 22L9 25L12 32L15 25L22 22L15 19L12 12z"
        transform="matrix(0.7927,0,0,0.7927,2.9872,2.0599)"
  />
  <path style="fill:#ef2b2d"
        d="M12 12L9 19L2 22L9 25L12 32L15 25L22 22L15 19L12 12z"
        transform="matrix(0.7927,0,0,0.7927,2.9872,2.0599)"
  />
 </g>
</svg>
