<?xml version="1.0" encoding="UTF-8" standalone="yes"?>
<svg version="1.1" width="64" height="64" color-interpolation="linearRGB"
     xmlns:svg="http://www.w3.org/2000/svg" xmlns="http://www.w3.org/2000/svg">
 <g>
  <path style="fill:#00267f"
        d="M1 9H63V55H1V9z"
        transform="matrix(1.0322,0,0,1.0434,-1.0322,-1.3913)"
  />
  <path style="fill:#ffc725"
        d="M1 9H63V55H1V9z"
        transform="matrix(0.387,0,0,1.0434,19.6129,-1.3913)"
  />
  <path style="fill:#010101"
        d="M48.03 45.05C49.06 45.12 48.49 45 49.52 45.07C49.54 43.04 49.56 41.01 49.59 38.98C50.9 38.98 52.22 38.98 53.53 38.98C53.51 31.71 56.33 25.58 59.71 20.38C59.91 20.12 59.78 20.01 59.55 20.06C57.01 20.46 54.39 21.8 52.59 23.65C52.38 23.91 52.62 23.95 52.74 23.93C53.72 23.64 53.53 24.74 53.46 25.18C52.45 28.4 51.57 31.51 51.25 35.21C51.25 35.47 51.21 35.66 51.09 35.67C50.64 35.69 50.19 35.69 49.73 35.69C49.56 35.69 49.53 35.5 49.52 35.33C49.54 31.6 49.51 27.87 49.53 24.15C49.54 23.9 50.43 22.9 50.58 22.9C51.03 22.89 51.23 22.9 51.74 22.89C51.87 22.89 51.9 22.48 51.75 22.46C51.44 22.46 50.86 22.43 50.55 22.43C50.4 22.44 48.32 20.85 48.31 20.52C48.29 20.02 48.3 19.53 48.28 19.03C48.31 18.9 47.7 18.87 47.71 19.04C47.71 19.47 47.71 20 47.71 20.43C47.6 21.1 48.01 43.02 48.03 45.05z"
        transform="matrix(0.7711,0,0,0.7711,-4.9734,8.2438)"
  />
  <path style="fill:#010101"
        d="M47.98 45.05C46.95 45.12 47.52 45 46.49 45.07C46.47 43.04 46.44 41.01 46.42 38.98C45.1 38.98 43.79 38.98 42.48 38.98C42.5 31.71 39.67 25.58 36.3 20.38C36.1 20.12 36.23 20.01 36.46 20.06C39 20.46 41.62 21.8 43.41 23.65C43.62 23.91 43.38 23.95 43.26 23.93C42.28 23.64 42.48 24.74 42.55 25.18C43.55 28.4 44.43 31.51 44.76 35.21C44.76 35.47 44.8 35.66 44.92 35.67C45.37 35.69 45.82 35.69 46.27 35.69C46.44 35.69 46.48 35.5 46.49 35.33C46.47 31.6 46.5 27.87 46.48 24.15C46.46 23.9 45.57 22.9 45.43 22.9C44.97 22.89 44.78 22.9 44.27 22.89C44.14 22.89 44.11 22.48 44.26 22.46C44.57 22.46 45.15 22.43 45.46 22.43C45.6 22.44 47.69 20.85 47.69 20.52C47.72 20.02 47.7 19.53 47.73 19.03C47.7 18.9 48.31 18.87 48.3 19.04C48.3 19.47 48.3 20 48.3 20.43C48.4 21.1 48 43.02 47.98 45.05z"
        transform="matrix(0.7711,0,0,0.7711,-5.0224,8.2438)"
  />
  <path style="fill:none; stroke:#7e7e7e; stroke-width:1"
        d="M1 9H63V55H1V9z"
  />
 </g>
</svg>
