<?xml version="1.0" encoding="UTF-8" standalone="yes"?>
<svg version="1.1" width="64" height="64" color-interpolation="linearRGB"
     xmlns:svg="http://www.w3.org/2000/svg" xmlns="http://www.w3.org/2000/svg">
 <g>
  <path style="fill:#ffffff"
        d="M0 8H64V56H0V8z"
  />
  <path style="fill:#1eb53a"
        d="M0 13L32 32L0 52V13z"
  />
  <path style="fill:#1eb53a"
        d="M0 13L32 32L0 52V13z"
        transform="matrix(-1,-0,0,-1,64,64)"
  />
  <path style="fill:#ce1127"
        d="M4 8L32 25L60 8"
  />
  <path style="fill:#ce1127"
        d="M4 8L32 25L60 8"
        transform="matrix(-1,0,-0,-1,64,64)"
  />
  <path style="fill:#ffffff"
        d="M32 16C23.16 16 16 23.16 16 32C16 40.83 23.16 48 32 48C40.83 48 48 40.83 48 32C48 23.16 40.83 16 32 16z"
  />
  <path style="fill:none; stroke:#7e7e7e; stroke-width:1"
        d="M1 9H63V55H1V9z"
  />
  <path style="fill:#ce1127"
        d="M34 41L44 24L53 41H34z"
        transform="matrix(-0.4307,-0,0,-0.4307,51.0494,40.6963)"
  />
  <path style="fill:#ce1127"
        d="M34 41L44 24L53 41H34z"
        transform="matrix(0.4307,0,0,0.4307,12.9505,10.4864)"
  />
  <path style="fill:#ce1127"
        d="M34 41L44 24L53 41H34z"
        transform="matrix(-0.4307,-0,0,-0.4307,44.0494,50.6963)"
  />
  <path style="fill:#ce1127"
        d="M34 41L44 24L53 41H34z"
        transform="matrix(0.4307,0,0,0.4307,5.9505,20.4864)"
  />
  <path style="fill:#ce1127"
        d="M34 41L44 24L53 41H34z"
        transform="matrix(-0.4307,-0,0,-0.4307,58.0494,50.6963)"
  />
  <path style="fill:#ce1127"
        d="M34 41L44 24L53 41H34z"
        transform="matrix(0.4307,0,0,0.4307,19.9505,20.4864)"
  />
 </g>
</svg>
