<?xml version="1.0" encoding="UTF-8" standalone="yes"?>
<svg version="1.1" width="64" height="64" color-interpolation="linearRGB"
     xmlns:svg="http://www.w3.org/2000/svg" xmlns="http://www.w3.org/2000/svg">
 <g>
  <path style="fill:#009b3a"
        d="M1 9H63V55H1V9z"
        transform="matrix(1.0322,0,0,1.0434,-1.0322,-1.3913)"
  />
  <path style="fill:#fede00"
        d="M32 12L60 32L32 52L4 32L32 12z"
  />
  <path style="fill:#002676"
        d="M32 16C23.16 16 16 23.16 16 32C16 40.83 23.16 48 32 48C40.83 48 48 40.83 48 32C48 23.16 40.83 16 32 16z"
        transform="matrix(0.7812,0,0,0.7812,7.5,7.5)"
  />
  <path style="fill:#c4dbd7"
        d="M23 26C23 26 37 26 44 37C44 38 43 39 43 39C43 39 37.76 33.01 36.87 33.49C36.87 33.49 36.87 33.49 36.87 33.5C36 34 27.5 28 21 28C22 26 23 26 23 26z"
  />
  <path style="fill:none; stroke:#7e7e7e; stroke-width:1"
        d="M1 9H63V55H1V9z"
  />
 </g>
</svg>
