<?xml version="1.0" encoding="UTF-8" standalone="yes"?>
<svg version="1.1" width="64" height="64" color-interpolation="linearRGB"
     xmlns:svg="http://www.w3.org/2000/svg" xmlns="http://www.w3.org/2000/svg">
 <g>
  <path style="fill:#010000"
        d="M1 9H63V51H1V9z"
        transform="matrix(1.0322,0,0,1.0476,-1.0322,-1.4285)"
  />
  <path style="fill:#ffffff"
        d="M1 9H63V51H1V9z"
        transform="matrix(1.0322,0,0,0.119,-1.0322,11.9285)"
  />
  <path style="fill:#ffffff"
        d="M1 9H63V51H1V9z"
        transform="matrix(1.0322,0,0,0.119,-1.0322,21.9285)"
  />
  <path style="fill:#ffffff"
        d="M1 9H63V51H1V9z"
        transform="matrix(1.0322,0,0,0.119,-1.0322,31.9285)"
  />
  <path style="fill:#ffffff"
        d="M1 9H63V51H1V9z"
        transform="matrix(1.0322,0,0,0.119,-1.0322,41.9285)"
  />
  <path style="fill:#ffffff"
        d="M1 9H63V51H1V9z"
        transform="matrix(0.4677,0,0,0.4761,-0.4677,3.7142)"
  />
  <path style="fill:#010000"
        d="M4 12L2 13L1 12L2 11L4 12L3 10L4 9L5 10L4 12L6 11L7 12L6 13L4 12L1 19L3 17L4 19L5 17L7 19L4 12z"
        transform="matrix(0.8333,0,0,0.8,-0.8333,0.8)"
  />
  <path style="fill:#010000"
        d="M4 12L2 13L1 12L2 11L4 12L3 10L4 9L5 10L4 12L6 11L7 12L6 13L4 12L1 19L3 17L4 19L5 17L7 19L4 12z"
        transform="matrix(0.8333,0,0,0.8,-0.8333,12.8)"
  />
  <path style="fill:#010000"
        d="M4 12L2 13L1 12L2 11L4 12L3 10L4 9L5 10L4 12L6 11L7 12L6 13L4 12L1 19L3 17L4 19L5 17L7 19L4 12z"
        transform="matrix(0.8333,0,0,0.8,3.1666,7.8)"
  />
  <path style="fill:#010000"
        d="M4 12L2 13L1 12L2 11L4 12L3 10L4 9L5 10L4 12L6 11L7 12L6 13L4 12L1 19L3 17L4 19L5 17L7 19L4 12z"
        transform="matrix(0.8333,0,0,0.8,7.1666,0.8)"
  />
  <path style="fill:#010000"
        d="M4 12L2 13L1 12L2 11L4 12L3 10L4 9L5 10L4 12L6 11L7 12L6 13L4 12L1 19L3 17L4 19L5 17L7 19L4 12z"
        transform="matrix(0.8333,0,0,0.8,7.1666,12.8)"
  />
  <path style="fill:#010000"
        d="M4 12L2 13L1 12L2 11L4 12L3 10L4 9L5 10L4 12L6 11L7 12L6 13L4 12L1 19L3 17L4 19L5 17L7 19L4 12z"
        transform="matrix(0.8333,0,0,0.8,11.1666,7.8)"
  />
  <path style="fill:#010000"
        d="M4 12L2 13L1 12L2 11L4 12L3 10L4 9L5 10L4 12L6 11L7 12L6 13L4 12L1 19L3 17L4 19L5 17L7 19L4 12z"
        transform="matrix(0.8333,0,0,0.8,15.1666,0.7999)"
  />
  <path style="fill:#010000"
        d="M4 12L2 13L1 12L2 11L4 12L3 10L4 9L5 10L4 12L6 11L7 12L6 13L4 12L1 19L3 17L4 19L5 17L7 19L4 12z"
        transform="matrix(0.8333,0,0,0.8,15.1666,12.8)"
  />
  <path style="fill:#010000"
        d="M4 12L2 13L1 12L2 11L4 12L3 10L4 9L5 10L4 12L6 11L7 12L6 13L4 12L1 19L3 17L4 19L5 17L7 19L4 12z"
        transform="matrix(0.8333,0,0,0.8,19.1666,7.8)"
  />
  <path style="fill:#010000"
        d="M4 12L2 13L1 12L2 11L4 12L3 10L4 9L5 10L4 12L6 11L7 12L6 13L4 12L1 19L3 17L4 19L5 17L7 19L4 12z"
        transform="matrix(0.8333,0,0,0.8,23.1666,0.7999)"
  />
  <path style="fill:#010000"
        d="M4 12L2 13L1 12L2 11L4 12L3 10L4 9L5 10L4 12L6 11L7 12L6 13L4 12L1 19L3 17L4 19L5 17L7 19L4 12z"
        transform="matrix(0.8333,0,0,0.8,23.1666,12.8)"
  />
  <path style="fill:none; stroke:#7e7e7e; stroke-width:1"
        d="M1 9H63V51H1V9z"
  />
 </g>
</svg>
