<?xml version="1.0" encoding="UTF-8" standalone="yes"?>
<svg version="1.1" width="64" height="64" color-interpolation="linearRGB"
     xmlns:svg="http://www.w3.org/2000/svg" xmlns="http://www.w3.org/2000/svg">
 <g>
  <path style="fill:#ef2b2b"
        d="M1 9H63V55H1V9z"
        transform="matrix(1.0322,0,0,1.0434,-1.0322,-1.3913)"
  />
  <path style="fill:#ffffff"
        d="M1 9H63V55H1V9z"
        transform="matrix(0.258,0,0,1.0434,15.7419,-1.3913)"
  />
  <path style="fill:#ffffff"
        d="M1 9H63V55H1V9z"
        transform="matrix(1.0322,0,0,0.3478,-1.0322,20.8695)"
  />
  <path style="fill:#002868"
        d="M1 9H63V55H1V9z"
        transform="matrix(1.0322,0,0,0.1739,-1.0322,26.4347)"
  />
  <path style="fill:#002868"
        d="M1 9H63V55H1V9z"
        transform="matrix(0.129,0,0,1.0434,19.8709,-1.3913)"
  />
  <path style="fill:none; stroke:#7e7e7e; stroke-width:1"
        d="M1 9H63V55H1V9z"
  />
 </g>
</svg>
