<?xml version="1.0" encoding="UTF-8" standalone="yes"?>
<svg version="1.1" width="64" height="64" color-interpolation="linearRGB"
     xmlns:svg="http://www.w3.org/2000/svg" xmlns="http://www.w3.org/2000/svg">
 <g>
  <path style="fill:#ce1126"
        d="M1 9H63V55H1V9z"
        transform="matrix(1.0322,0,0,1.0434,-1.0322,-1.3913)"
  />
  <path style="fill:#003f87"
        d="M1 9H63V55H1V9z"
        transform="matrix(1.0322,0,0,0.8695,-1.0322,4.1739)"
  />
  <path style="fill:#ffffff"
        d="M32 16C23.16 16 16 23.16 16 32C16 40.83 23.16 48 32 48C40.83 48 48 40.83 48 32C48 23.16 40.83 16 32 16z"
        transform="matrix(1.125,0,0,1.125,-4,-4)"
  />
  <path style="fill:none; stroke:#007f00; stroke-width:4"
        d="M32 16C23.16 16 16 23.16 16 32C16 40.83 23.16 48 32 48C40.83 48 48 40.83 48 32C48 23.16 40.83 16 32 16z"
        transform="matrix(0.8301,0,0,0.8301,5.4348,5.4348)"
  />
  <path style="fill:none; stroke:#007f00; stroke-width:3"
        d="M28 23C32 21 36 24 36 24L35 26C35 26 37 29 36 29C35 29 39 30 39 30C39 30 36 28 38 27C40 26 33 36 33 35C33 26 26 28 25 28C24 28 29 27 29 27C29 27 24 25 28 23z"
        transform="matrix(0.7005,-0.0831,0.0949,0.7999,6.2531,9.0179)"
  />
  <path style="fill:none; stroke:#7e7e7e; stroke-width:1"
        d="M24 29C23 29 22 34 22 34L24 32V39H25L26 33L27 39H28L27 32H30L27 31C27 31 28 30 27 29C26 26 25 25 24 29z"
        transform="matrix(1,0,0,1,2,1)"
  />
  <path style="fill:none; stroke:#7e7e7e; stroke-width:1"
        d="M24 29C23 29 22 34 22 34L24 32V39H25L26 33L27 39H28L27 32H30L27 31C27 31 28 30 27 29C26 26 25 25 24 29z"
        transform="matrix(-1.0239,0,0,1,62.8798,1)"
  />
  <path style="fill:none; stroke:#7e7e7e; stroke-width:1"
        d="M1 9H63V55H1V9z"
  />
 </g>
</svg>
