<?xml version="1.0" encoding="UTF-8" standalone="yes"?>
<svg version="1.1" width="64" height="64" color-interpolation="linearRGB"
     xmlns:svg="http://www.w3.org/2000/svg" xmlns="http://www.w3.org/2000/svg">
 <g>
  <path style="fill:#f1bf00"
        d="M1 9H63V55H1V9z"
        transform="matrix(1.0322,0,0,1.0217,-1.0322,-1.1956)"
  />
  <path style="fill:#aa1518"
        d="M0 12H64V17H0V12z"
        transform="matrix(1,0,0,1,0,-1)"
  />
  <path style="fill:#aa1518"
        d="M0 12H64V17H0V12z"
        transform="matrix(1,0,0,1,0,11)"
  />
  <path style="fill:#aa1518"
        d="M0 12H64V17H0V12z"
        transform="matrix(1,0,0,1,0,23)"
  />
  <path style="fill:#aa1518"
        d="M0 12H64V17H0V12z"
        transform="matrix(1,0,0,1,0,35)"
  />
  <path style="fill:none; stroke:#7e7e7e; stroke-width:1"
        d=""
        transform="matrix(1,0,0,0.9787,0,0.1808)"
  />
 </g>
</svg>
