<?xml version="1.0" encoding="UTF-8" standalone="yes"?>
<svg version="1.1" width="64" height="64" color-interpolation="linearRGB"
     xmlns:svg="http://www.w3.org/2000/svg" xmlns="http://www.w3.org/2000/svg">
 <g>
  <path style="fill:#bf0a30"
        d="M1 9H63V55H1V9z"
        transform="matrix(1.0322,0,0,1.0434,-1.0322,-1.3913)"
  />
  <path style="fill:#ffffff"
        d="M1 9H63V55H1V9z"
        transform="matrix(0.5161,0,0,1.0434,15.4838,-1.3913)"
  />
  <path style="fill:#bf0a30"
        d="M41.57 31.14L38.99 32.02L50.99 42.55C51.9 45.25 50.68 46.05 49.9 47.47L61.92 45.82L61.58 58.93L66.28 58.85L65.69 45.85L77.73 47.4C76.92 45.69 76.2 44.79 76.95 42.06L88.94 32.09L86.84 31.33C85.12 30 87.58 24.95 87.95 21.77C87.95 21.77 80.95 24.17 80.49 22.91L78.71 19.49L72.34 26.48C71.64 26.65 71.35 26.37 71.18 25.79L74.13 11.17L69.47 13.79C69.08 13.95 68.69 13.81 68.43 13.36L63.95 4.36L59.33 13.7C58.98 14.03 58.63 14.07 58.34 13.85L53.91 11.36L56.57 25.86C56.36 26.44 55.85 26.6 55.26 26.29L49.17 19.37C48.37 20.65 47.83 22.73 46.78 23.2C45.73 23.64 42.2 22.32 39.84 21.8C40.64 24.71 43.17 29.55 41.57 31.14z"
        transform="matrix(0.5662,0,0,0.5662,-4.4241,14.5593)"
  />
  <path style="fill:none; stroke:#7e7e7e; stroke-width:1"
        d="M1 9H63V55H1V9z"
  />
 </g>
</svg>
