<?xml version="1.0" encoding="UTF-8" standalone="yes"?>
<svg version="1.1" width="64" height="64" color-interpolation="linearRGB"
     xmlns:svg="http://www.w3.org/2000/svg" xmlns="http://www.w3.org/2000/svg">
 <g>
  <path style="fill:#008000"
        d="M1 9H63V55H1V9z"
        transform="matrix(1.0322,0,0,1.0434,-1.0322,-1.3913)"
  />
  <path style="fill:#ffe000"
        d="M70.39 32C70.39 26.69 66.1 22.4 60.79 22.4C55.49 22.4 51.19 26.69 51.19 32C51.19 37.3 55.49 41.6 60.79 41.6C66.1 41.6 70.39 37.3 70.39 32z"
        transform="matrix(0.6321,0.1953,-0.1953,0.6321,0.4214,-1.0474)"
  />
  <path style="fill:#008000"
        d="M70.39 32C70.39 26.69 66.1 22.4 60.79 22.4C55.49 22.4 51.19 26.69 51.19 32C51.19 37.3 55.49 41.6 60.79 41.6C66.1 41.6 70.39 37.3 70.39 32z"
        transform="matrix(0.5695,0.176,-0.176,0.5695,6.3346,1.9989)"
  />
  <path style="fill:none; stroke:#7e7e7e; stroke-width:1"
        d="M1 9H63V55H1V9z"
  />
  <path style="fill:#ffe000"
        d="M70.39 32C70.39 26.69 66.1 22.4 60.79 22.4C55.49 22.4 51.19 26.69 51.19 32C51.19 37.3 55.49 41.6 60.79 41.6C66.1 41.6 70.39 37.3 70.39 32z"
        transform="matrix(0.6354,0,0,0.6354,-27.3333,0.1667)"
  />
  <path style="fill:#ffe000"
        d="M32.23 27.97L31.35 30.71L28.66 29.69L30.25 32.09L27.78 33.56L30.64 33.81L30.25 36.66L32.23 34.57L34.22 36.66L33.82 33.81L36.69 33.56L34.21 32.09L35.81 29.69L33.11 30.71L32.23 27.97z"
        transform="matrix(0.7561,0,0,0.7561,25.283,-5.2027)"
  />
  <path style="fill:#ffe000"
        d="M32.23 27.97L31.35 30.71L28.66 29.69L30.25 32.09L27.78 33.56L30.64 33.81L30.25 36.66L32.23 34.57L34.22 36.66L33.82 33.81L36.69 33.56L34.21 32.09L35.81 29.69L33.11 30.71L32.23 27.97z"
        transform="matrix(0.7561,0,0,0.7561,15.9144,5.0175)"
  />
  <path style="fill:#ffe000"
        d="M32.23 27.97L31.35 30.71L28.66 29.69L30.25 32.09L27.78 33.56L30.64 33.81L30.25 36.66L32.23 34.57L34.22 36.66L33.82 33.81L36.69 33.56L34.21 32.09L35.81 29.69L33.11 30.71L32.23 27.97z"
        transform="matrix(0.7561,0,0,0.7561,32.9482,3.3141)"
  />
  <path style="fill:#ffe000"
        d="M32.23 27.97L31.35 30.71L28.66 29.69L30.25 32.09L27.78 33.56L30.64 33.81L30.25 36.66L32.23 34.57L34.22 36.66L33.82 33.81L36.69 33.56L34.21 32.09L35.81 29.69L33.11 30.71L32.23 27.97z"
        transform="matrix(0.7561,0,0,0.7561,24.4313,19.4962)"
  />
  <path style="fill:#ffe000"
        d="M32.23 27.97L31.35 30.71L28.66 29.69L30.25 32.09L27.78 33.56L30.64 33.81L30.25 36.66L32.23 34.57L34.22 36.66L33.82 33.81L36.69 33.56L34.21 32.09L35.81 29.69L33.11 30.71L32.23 27.97z"
        transform="matrix(0.4694,0,0,0.4694,37.505,18.1472)"
  />
  <path style="fill:#008000"
        d="M13 16L12 18L7 17L8 19L5 20H10L9 22L11 21L12 20L14 22V20L13 19L15 18H13V16z"
        transform="matrix(1,0,0,1,1,0)"
  />
  <path style="fill:#802000"
        d="M11 20C11 20 10 25 9 25C8 25 10.71 26.18 11 25C12.37 19.25 11 20 11 20z"
        transform="matrix(1.0135,0,0,1,0.8663,0)"
  />
 </g>
</svg>
