<?xml version="1.0" encoding="UTF-8" standalone="yes"?>
<svg version="1.1" width="64" height="64" color-interpolation="linearRGB"
     xmlns:svg="http://www.w3.org/2000/svg" xmlns="http://www.w3.org/2000/svg">
 <g>
  <path style="fill:#ce1126"
        d="M1 9H63V55H1V9z"
        transform="matrix(1.0322,0,0,1.0434,-1.0322,-1.3913)"
  />
  <path style="fill:#fcd116"
        d="M6.87 13.03H13.84L16 6.39L18.15 13.03H25.12L19.48 17.13L21.64 23.76L16 19.66L10.35 23.76L12.51 17.13L6.87 13.03z"
        transform="matrix(0.6875,0,0,0.6875,-1,10)"
  />
  <path style="fill:#fcd116"
        d="M6.87 13.03H13.84L16 6.39L18.15 13.03H25.12L19.48 17.13L21.64 23.76L16 19.66L10.35 23.76L12.51 17.13L6.87 13.03z"
        transform="matrix(0.2826,0.0509,-0.0509,0.2826,14.8988,25.7669)"
  />
  <path style="fill:#fcd116"
        d="M6.87 13.03H13.84L16 6.39L18.15 13.03H25.12L19.48 17.13L21.64 23.76L16 19.66L10.35 23.76L12.51 17.13L6.87 13.03z"
        transform="matrix(0.1836,0.2423,-0.2423,0.1836,25.3949,19.0543)"
  />
  <path style="fill:#fcd116"
        d="M6.87 13.03H13.84L16 6.39L18.15 13.03H25.12L19.48 17.13L21.64 23.76L16 19.66L10.35 23.76L12.51 17.13L6.87 13.03z"
        transform="matrix(0.2979,0.0499,-0.0499,0.2979,20.5744,13.4309)"
  />
  <path style="fill:#fcd116"
        d="M6.87 13.03H13.84L16 6.39L18.15 13.03H25.12L19.48 17.13L21.64 23.76L16 19.66L10.35 23.76L12.51 17.13L6.87 13.03z"
        transform="matrix(0.2828,0.11,-0.11,0.2828,16.247,7.379)"
  />
  <path style="fill:none; stroke:#7e7e7e; stroke-width:1"
        d="M1 9H63V55H1V9z"
  />
 </g>
</svg>
