<?xml version="1.0" encoding="UTF-8" standalone="yes"?>
<svg version="1.1" width="64" height="64" color-interpolation="linearRGB"
     xmlns:svg="http://www.w3.org/2000/svg" xmlns="http://www.w3.org/2000/svg">
 <g>
  <path style="fill:#1c8a41"
        d="M0 8H64V56L0 8z"
  />
  <path style="fill:#0021ad"
        d="M0 8H64V56L0 8z"
        transform="matrix(-1,0,-0,-1,64,64)"
  />
  <path style="fill:none; stroke:#7e7e7e; stroke-width:1"
        d="M1 9H63V55H1V9z"
  />
  <path style="fill:#ffc638"
        d="M70.39 32C70.39 26.69 66.1 22.4 60.79 22.4C55.49 22.4 51.19 26.69 51.19 32C51.19 37.3 55.49 41.6 60.79 41.6C66.1 41.6 70.39 37.3 70.39 32z"
        transform="matrix(0.7395,0,0,0.7395,-12.6666,8.8333)"
  />
  <path style="fill:#ffffff"
        d="M32.23 27.97L31.35 30.71L28.66 29.69L30.25 32.09L27.78 33.56L30.64 33.81L30.25 36.66L32.23 34.57L34.22 36.66L33.82 33.81L36.69 33.56L34.21 32.09L35.81 29.69L33.11 30.71L32.23 27.97z"
        transform="matrix(0.6289,0,0,0.5716,-6.7589,13.5899)"
  />
  <path style="fill:#ffffff"
        d="M32.23 27.97L31.35 30.71L28.66 29.69L30.25 32.09L27.78 33.56L30.64 33.81L30.25 36.66L32.23 34.57L34.22 36.66L33.82 33.81L36.69 33.56L34.21 32.09L35.81 29.69L33.11 30.71L32.23 27.97z"
        transform="matrix(0.6289,0,0,0.5716,-14.5511,21.3162)"
  />
  <path style="fill:#ffffff"
        d="M32.23 27.97L31.35 30.71L28.66 29.69L30.25 32.09L27.78 33.56L30.64 33.81L30.25 36.66L32.23 34.57L34.22 36.66L33.82 33.81L36.69 33.56L34.21 32.09L35.81 29.69L33.11 30.71L32.23 27.97z"
        transform="matrix(0.6289,0,0,0.5716,-0.3834,20.0284)"
  />
  <path style="fill:#ffffff"
        d="M32.23 27.97L31.35 30.71L28.66 29.69L30.25 32.09L27.78 33.56L30.64 33.81L30.25 36.66L32.23 34.57L34.22 36.66L33.82 33.81L36.69 33.56L34.21 32.09L35.81 29.69L33.11 30.71L32.23 27.97z"
        transform="matrix(0.6289,0,0,0.5716,-7.4673,32.2616)"
  />
  <path style="fill:#ffffff"
        d="M32.23 27.97L31.35 30.71L28.66 29.69L30.25 32.09L27.78 33.56L30.64 33.81L30.25 36.66L32.23 34.57L34.22 36.66L33.82 33.81L36.69 33.56L34.21 32.09L35.81 29.69L33.11 30.71L32.23 27.97z"
        transform="matrix(0.3904,0,0,0.3549,3.4066,31.2419)"
  />
  <path style="fill:#1c8a41"
        d="M36 28L38 32C38 32 35 33 35 37C34 37 34 38 33 37C34 34 33 34 26 34C28 32 27 30 27 30C27 30 28 32.12 29 32C37 31 36 28 36 28z"
        transform="matrix(0.9377,0.3474,-0.3474,0.9377,13.3719,-9.0777)"
  />
  <path style="fill:#ffc638"
        d="M48 13C48 13 55 15 56 17C57 19 57 23 59 23C60 22 64 23 63 24C62 25 49 37 41 33C44 33 52 31 54 29C56 27 55 25 55 25C55 25 45 22 45 21C45 20 54 21 55 22C56 23 54 19 54 19L48 13z"
        transform="matrix(0.7594,0,0,0.7594,11.8637,8.1275)"
  />
 </g>
</svg>
