<?xml version="1.0" encoding="UTF-8" standalone="yes"?>
<svg version="1.1" width="64" height="64" color-interpolation="linearRGB"
     xmlns:svg="http://www.w3.org/2000/svg" xmlns="http://www.w3.org/2000/svg">
 <g>
  <path style="fill:#6ab1e7"
        d="M1 9H63V55H1V9z"
        transform="matrix(1.0322,0,0,0.5217,-1.0322,3.3043)"
  />
  <path style="fill:#11ad2b"
        d="M1 9H63V55H1V9z"
        transform="matrix(1.0322,0,0,0.5217,-1.0322,27.3043)"
  />
  <path style="fill:#ffffff"
        d="M0 8L33 32L0 56V8z"
  />
  <path style="fill:#e23d28"
        d="M19.97 36.5L16.12 33.73L12.28 36.53L13.71 31.98L9.88 29.17L14.62 29.13L16.09 24.59L17.59 29.12L22.32 29.13L18.51 31.96L19.97 36.5z"
        transform="matrix(1.4188,0,0,1.4188,-11.1413,-12.3025)"
  />
  <path style="fill:none; stroke:#7e7e7e; stroke-width:1"
        d="M1 9H63V55H1V9z"
  />
 </g>
</svg>
