<?xml version="1.0" encoding="UTF-8" standalone="yes"?>
<svg version="1.1" width="64" height="64" color-interpolation="linearRGB"
     xmlns:svg="http://www.w3.org/2000/svg" xmlns="http://www.w3.org/2000/svg">
 <g>
  <path style="fill:#ffffff"
        d="M1 9H63V55H1V9z"
        transform="matrix(1.0322,0,0,1.0434,-1.0322,-1.3913)"
  />
  <path style="fill:#002d62"
        d="M1 9H63V55H1V9z"
        transform="matrix(0.4516,0,0,0.4347,-0.4516,4.0869)"
  />
  <path style="fill:#002d62"
        d="M1 9H63V55H1V9z"
        transform="matrix(0.4516,0,0,0.4347,35.5483,32.0869)"
  />
  <path style="fill:#ce1126"
        d="M1 9H63V55H1V9z"
        transform="matrix(0.4516,0,0,0.4347,35.5483,4.0869)"
  />
  <path style="fill:#ce1126"
        d="M1 9H63V55H1V9z"
        transform="matrix(0.4516,0,0,0.4347,-0.4516,32.0869)"
  />
  <path style="fill:none; stroke:#7e7e7e; stroke-width:1"
        d="M1 9H63V55H1V9z"
  />
  <path style="fill:#7e7e7e"
        d="M29 36C29 36 26 28 32 28C38 28 35 36 35 36H29z"
  />
 </g>
</svg>
