<?xml version="1.0" encoding="UTF-8" standalone="yes"?>
<svg version="1.1" width="64" height="64" color-interpolation="linearRGB"
     xmlns:svg="http://www.w3.org/2000/svg" xmlns="http://www.w3.org/2000/svg">
 <g>
  <path style="fill:#11ad2b"
        d="M1 9H63V55H1V9z"
        transform="matrix(1.0322,0,0,0.5217,-1.0322,3.3043)"
  />
  <path style="fill:#4189dd"
        d="M1 9H63V55H1V9z"
        transform="matrix(1.0322,0,0,0.5217,-1.0322,27.3043)"
  />
  <path style="fill:#ea0337"
        d="M0 8L64 32L0 56V8z"
  />
  <path style="fill:none; stroke:#7e7e7e; stroke-width:1"
        d="M1 9H63V55H1V9z"
  />
  <path style="fill:#ffc725"
        d="M32 16C29.14 16 24 22 24.14 18.05C24.28 14.41 20 29 18.32 24.13C17.31 21.22 16 29.91 16 32C16 34.94 21.7 42.53 19 42C12.36 40.69 27.67 45.97 25.65 46.69C22 48 29.74 50 32 50C34.22 50 45.13 44.32 40.56 44.66C36 45 49.48 38.17 45.84 40.02C40 43 48 34.92 48 32C48 31.86 44.29 17.25 44.11 25.12C44 30 39.58 17.19 39.61 17.92C40 26 34.75 16 32 16z"
        transform="matrix(0.7058,0,0,0.7058,-6.2941,8.7058)"
  />
  <path style="fill:#ea0337"
        d="M32 16C29.14 16 24 22 24.14 18.05C24.28 14.41 20 29 18.32 24.13C17.31 21.22 16 29.91 16 32C16 34.94 21.7 42.53 19 42C12.36 40.69 27.67 45.97 25.65 46.69C22 48 29.74 50 32 50C34.22 50 45.13 44.32 40.56 44.66C36 45 49.48 38.17 45.84 40.02C40 43 48 34.92 48 32C48 31.86 44.29 17.25 44.11 25.12C44 30 39.58 17.19 39.61 17.92C40 26 34.75 16 32 16z"
        transform="matrix(0.5346,0,0,0.5346,-0.8961,14.4463)"
  />
  <path style="fill:#ffc725"
        d="M14 26C14 26 15 27 15 28C15 29 12 28 12 29C12 30 15 30 14 31C13 32 10 32 12 33C14 34 16 33 15 34C14 35 10 34 12 35C14 36 15 41 15 41H16C16 41 16.58 37 18 37C19 37 21 34 19 35C17 36 16 37 16 37L15 35C15 35 20 34 20 33C20 32 16 33 16 34C16 35 15 32 15 32C15 32 18 31 18 30C18 29 17 29 16 30C15 31 16 28 16 28C16 28 20 26 18 26C16 26 16 27 16 27L14 26z"
  />
 </g>
</svg>
