<?xml version="1.0" encoding="UTF-8" standalone="yes"?>
<svg version="1.1" width="64" height="64" color-interpolation="linearRGB"
     xmlns:svg="http://www.w3.org/2000/svg" xmlns="http://www.w3.org/2000/svg">
 <g>
  <path style="fill:#50b5e0"
        d="M1 9H63V55H1V9z"
        transform="matrix(1.0322,0,0,1.0434,-1.0322,-1.3913)"
  />
  <path style="fill:#ffffff"
        d="M43 24C43 37 44 39 50 40C56 39 57 37 57 24C54 24 47 24 43 24z"
  />
  <path style="fill:#07286b"
        d="M1 9H63V55H1V9z"
        transform="matrix(0.5161,0,0,0.5,-0.5161,3.5)"
  />
  <path style="fill:#ffffff"
        d="M64 12V17L10 52H0V47L54 12H64z
           M0 12H8L64 46V52H56L0 18V12z"
        transform="matrix(0.5,0,0,0.5749,0,1.1)"
  />
  <path style="fill:#ce1126"
        d="M64 12L7 52H0L57 12H64z
           M0 12L64 48V52L0 16V12z"
        transform="matrix(0.5,0,0,0.5749,0,1.1)"
  />
  <path style="fill:#ffffff"
        d="M0 26H26V12H38V26H64V38H38V52H26V38H0V26z"
        transform="matrix(0.5,0,0,0.5749,0,1.1)"
  />
  <path style="fill:#ce1126"
        d="M0 36V28H28V12H36V28H64V36H36V52H28V36H0z"
        transform="matrix(0.5,0,0,0.5749,0,1.1)"
  />
  <path style="fill:none; stroke:#7e7e7e; stroke-width:1"
        d="M1 9H63V55H1V9z"
  />
  <path style="fill:#ce1126"
        d="M1 9H63V55H1V9z"
        transform="matrix(0.2258,0,0,0.0652,42.7741,30.413)"
  />
  <path style="fill:#ce1126"
        d="M1 9H63V55H1V9z"
        transform="matrix(0.2258,0,0,0.0869,42.7741,23.2173)"
  />
  <path style="fill:#ce1126"
        d="M1 9H63V55H1V9z"
        transform="matrix(0.0645,0,0,0.2608,47.9354,25.6521)"
  />
 </g>
</svg>
