<?xml version="1.0" encoding="UTF-8" standalone="yes"?>
<svg version="1.1" width="64" height="64" color-interpolation="linearRGB"
     xmlns:svg="http://www.w3.org/2000/svg" xmlns="http://www.w3.org/2000/svg">
 <g>
  <path style="fill:#ce1126"
        d="M1 9H63V55H1V9z"
        transform="matrix(1.0322,0,0,1.0434,-1.0322,-1.3913)"
  />
  <path style="fill:#fcd116"
        d="M1 9H63V55H1V9z"
        transform="matrix(0.7741,0,0,0.6956,7.2258,9.7391)"
  />
  <path style="fill:#007a5e"
        d="M8 16L32 32L8 48V16z"
  />
  <path style="fill:#007a5e"
        d="M8 16L32 32L8 48V16z"
        transform="matrix(-1,-0,0,-1,64,64)"
  />
  <path style="fill:#ce1126"
        d="M32 16C23.16 16 16 23.16 16 32C16 40.83 23.16 48 32 48C40.83 48 48 40.83 48 32C48 23.16 40.83 16 32 16z"
        transform="matrix(0.4375,0,0,0.4375,18,19)"
  />
  <path style="fill:none; stroke:#7e7e7e; stroke-width:1"
        d="M1 9H63V55H1V9z"
  />
  <path style="fill:#fcd116"
        d="M36.78 29.48H45.35L48 21.33L50.64 29.48H59.21L52.28 34.51L54.93 42.66L48 37.63L41.06 42.66L43.71 34.51L36.78 29.48z"
        transform="matrix(0.5449,0,0,0.5449,5.943,14.5113)"
  />
  <path style="fill:#fcd116"
        d="M36.78 29.48H45.35L48 21.33L50.64 29.48H59.21L52.28 34.51L54.93 42.66L48 37.63L41.06 42.66L43.71 34.51L36.78 29.48z"
        transform="matrix(0.2774,0,0,0.2774,18.7833,3.2181)"
  />
  <path style="fill:#fcd116"
        d="M36.78 29.48H45.35L48 21.33L50.64 29.48H59.21L52.28 34.51L54.93 42.66L48 37.63L41.06 42.66L43.71 34.51L36.78 29.48z"
        transform="matrix(0.2774,0,0,0.2774,6.7834,3.2181)"
  />
  <path style="fill:#fcd116"
        d="M36.78 29.48H45.35L48 21.33L50.64 29.48H59.21L52.28 34.51L54.93 42.66L48 37.63L41.06 42.66L43.71 34.51L36.78 29.48z"
        transform="matrix(0.2774,0,0,0.2774,30.7833,3.2181)"
  />
  <path style="fill:#fcd116"
        d="M36.78 29.48H45.35L48 21.33L50.64 29.48H59.21L52.28 34.51L54.93 42.66L48 37.63L41.06 42.66L43.71 34.51L36.78 29.48z"
        transform="matrix(0.2774,0,0,0.2774,18.7833,43.2181)"
  />
  <path style="fill:#fcd116"
        d="M36.78 29.48H45.35L48 21.33L50.64 29.48H59.21L52.28 34.51L54.93 42.66L48 37.63L41.06 42.66L43.71 34.51L36.78 29.48z"
        transform="matrix(0.2774,0,0,0.2774,6.7834,43.2181)"
  />
  <path style="fill:#fcd116"
        d="M36.78 29.48H45.35L48 21.33L50.64 29.48H59.21L52.28 34.51L54.93 42.66L48 37.63L41.06 42.66L43.71 34.51L36.78 29.48z"
        transform="matrix(0.2774,0,0,0.2774,30.7833,43.2181)"
  />
  <path style="fill:#ce1126"
        d="M14 33C14 33 13 32 13 31C13 30 15 30 15 31C15 32 14 33 14 33z"
        transform="matrix(1.3436,-1.4772,1.4772,1.3436,-48.7486,11.8048)"
  />
  <path style="fill:#fcd116"
        d="M14 27C13 30 10 32 13 34C13 32 14 31 14 31C14 31 15 32 15 34C18 32 15 30 14 27z"
        transform="matrix(0.958,-1.0649,1.0649,0.958,-31.8926,16.7035)"
  />
 </g>
</svg>
