<?xml version="1.0" encoding="UTF-8" standalone="yes"?>
<svg version="1.1" width="64" height="64" color-interpolation="linearRGB"
     xmlns:svg="http://www.w3.org/2000/svg" xmlns="http://www.w3.org/2000/svg">
 <g>
  <path style="fill:#ce1126"
        d="M1 9H63V55H1V9z"
        transform="matrix(1.0322,0,0,0.3478,-1.0322,4.8695)"
  />
  <path style="fill:#fcd116"
        d="M1 9H63V55H1V9z"
        transform="matrix(1.0322,0,0,0.3478,-1.0322,20.8695)"
  />
  <path style="fill:#006b3e"
        d="M1 9H63V55H1V9z"
        transform="matrix(1.0322,0,0,0.3478,-1.0322,36.8695)"
  />
  <path style="fill:#010101"
        d="M21.78 28.48H30.35L33 20.33L35.64 28.48H44.21L37.28 33.51L39.93 41.66L33 36.63L26.06 41.66L28.71 33.51L21.78 28.48z"
        transform="matrix(0.7279,0,0,0.7279,7.9273,9.3368)"
  />
  <path style="fill:none; stroke:#7e7e7e; stroke-width:1"
        d="M1 9H63V55H1V9z"
  />
 </g>
</svg>
