<?xml version="1.0" encoding="UTF-8" standalone="yes"?>
<svg version="1.1" width="64" height="64" color-interpolation="linearRGB"
     xmlns:svg="http://www.w3.org/2000/svg" xmlns="http://www.w3.org/2000/svg">
 <g>
  <path style="fill:#3e9a00"
        d="M1 9H63V55H1V9z"
        transform="matrix(1.0322,0,0,0.3478,-1.0322,4.8695)"
  />
  <path style="fill:#ffffff"
        d="M1 9H63V55H1V9z"
        transform="matrix(1.0322,0,0,0.3478,-1.0322,20.8695)"
  />
  <path style="fill:#e32118"
        d="M1 9H63V55H1V9z"
        transform="matrix(1.0322,0,0,0.3478,-1.0322,36.8695)"
  />
  <path style="fill:#0072ce"
        d="M0 64L39 32L0 -0V64z"
        transform="matrix(0.625,0,0,0.75,0,7.9999)"
  />
  <path style="fill:none; stroke:#7e7e7e; stroke-width:1"
        d="M1 9H63V55H1V9z"
  />
  <path style="fill:#3e9a00"
        d="M35 31C33 30 38 28 38 28C38 28 40 24 41 25C42 26 44 25 45 25C46 25 53 27 51 29C50 30 44 29.99 43 31C41 31 37 32 35 31z"
        transform="matrix(0.5234,0,0,0.6412,19.4467,11.8901)"
  />
  <path style="fill:#553c13"
        d="M40 38C42 36 42 34 42 30C42 26 44 30 44 30C44 30 43 36 45 38C43 39 41 39 40 38z"
        transform="matrix(0.5234,0,0,0.6412,19.4467,11.8901)"
  />
  <path style="fill:none; stroke:#553c13; stroke-width:1"
        d="M36 26H48V36C48 36 48 38 46 38C44 38 40 38 38 38C36 38 36 36 36 36V26z"
  />
 </g>
</svg>
