<?xml version="1.0" encoding="UTF-8" standalone="yes"?>
<svg version="1.1" width="64" height="64" color-interpolation="linearRGB"
     xmlns:svg="http://www.w3.org/2000/svg" xmlns="http://www.w3.org/2000/svg">
 <g>
  <path style="fill:#5695dd"
        d="M1 9H63V55H1V9z"
        transform="matrix(1.0322,0,0,1.0434,-1.0322,-1.3913)"
  />
  <path style="fill:#ffffff"
        d="M1 9H63V55H1V9z"
        transform="matrix(0.387,0,0,1.0434,19.6129,-1.3913)"
  />
  <path style="fill:none; stroke:#7e7e7e; stroke-width:1"
        d="M1 9H63V55H1V9z"
  />
  <path style="fill:#009900"
        d="M28 19C27 18 26 19 26 19C26 19 20 24 27 35C30 35 31 35 31 35C31 35 23 30 28 19z"
        transform="matrix(0.7697,-0.1281,0.1281,0.7697,3.864,15.3818)"
  />
  <path style="fill:#009900"
        d="M28 19C27 18 26 19 26 19C26 19 20 24 27 35C30 35 31 35 31 35C31 35 23 30 28 19z"
        transform="matrix(-0.8681,-0.1043,-0.0931,0.7748,62.1298,14.6281)"
  />
  <path style="fill:#009900"
        d="M31 17C31 17 33 13 34 17C34 18 36 19 36 19C36 19 41 27 33 35C31.18 36.51 37 32 36 24C35.72 21.78 35 32 32 33C34 29 34 24 34 24C34 24 28 22 32 18C32 17 31 17 31 17z"
        transform="matrix(0.7803,0,0,0.7803,6.3029,11.7708)"
  />
 </g>
</svg>
