<?xml version="1.0" encoding="UTF-8" standalone="yes"?>
<svg version="1.1" width="64" height="64" color-interpolation="linearRGB"
     xmlns:svg="http://www.w3.org/2000/svg" xmlns="http://www.w3.org/2000/svg">
 <g>
  <path style="fill:#ffffff"
        d="M1 9H63V55H1V9z"
        transform="matrix(1.0322,0,0,1.0434,-1.0322,-1.3913)"
  />
  <path style="fill:#0037b8"
        d="M1 9H63V55H1V9z"
        transform="matrix(1.0322,0,0,0.1739,-1.0322,10.4347)"
  />
  <path style="fill:#0037b8"
        d="M1 9H63V55H1V9z"
        transform="matrix(1.0322,0,0,0.1739,-1.0322,42.4347)"
  />
  <path style="fill:none; stroke:#0037b8; stroke-width:3"
        d="M34 41L44 23L54 41H34z"
        transform="matrix(-0.6753,-0,0,-0.6753,62.3656,56.322)"
  />
  <path style="fill:none; stroke:#0037b8; stroke-width:3"
        d="M34 41L44 23L54 41H34z"
        transform="matrix(0.6753,0,0,0.6753,2.6343,8.9589)"
  />
  <path style="fill:none; stroke:#7e7e7e; stroke-width:1"
        d="M1 9H63V55H1V9z"
  />
 </g>
</svg>
