<?xml version="1.0" encoding="UTF-8" standalone="yes"?>
<svg version="1.1" width="64" height="64" color-interpolation="linearRGB"
     xmlns:svg="http://www.w3.org/2000/svg" xmlns="http://www.w3.org/2000/svg">
 <g>
  <path style="fill:#e8112c"
        d="M1 9H63V55H1V9z"
        transform="matrix(1.0322,0,0,1.0434,-1.0322,-1.3913)"
  />
  <path style="fill:none; stroke:#7e7e7e; stroke-width:1"
        d="M1 9H63V55H1V9z"
  />
  <path style="fill:#ffffff"
        d="M36.08 30.99L31.81 29.65L30.37 20.77C30.37 20.77 26.58 22.4 22.64 22.39C22.26 22.38 20.19 23.14 19.67 23.52C18.17 26.8 14.92 19.22 13.77 18.4C12.62 17.57 18.04 19.73 19.35 21.54C20.33 21.38 33.03 12.23 34.15 19.14C35.62 21.94 38.56 27.55 38.56 27.55L36.08 30.99z"
        transform="matrix(0.5373,0,0,0.5373,14.3546,13.6694)"
  />
  <path style="fill:#ffffff"
        d="M36.08 30.99L31.81 29.65L30.37 20.77C30.37 20.77 26.58 22.4 22.64 22.39C22.26 22.38 20.19 23.14 19.67 23.52C18.17 26.8 14.92 19.22 13.77 18.4C12.62 17.57 18.04 19.73 19.35 21.54C20.33 21.38 33.03 12.23 34.15 19.14C35.62 21.94 38.56 27.55 38.56 27.55L36.08 30.99z"
        transform="matrix(-0.3081,0.4402,-0.4402,-0.3081,57.6289,24.2249)"
  />
  <path style="fill:#ffffff"
        d="M36.08 30.99L31.81 29.65L30.37 20.77C30.37 20.77 26.58 22.4 22.64 22.39C22.26 22.38 20.19 23.14 19.67 23.52C18.17 26.8 14.92 19.22 13.77 18.4C12.62 17.57 18.04 19.73 19.35 21.54C20.33 21.38 33.03 12.23 34.15 19.14C35.62 21.94 38.56 27.55 38.56 27.55L36.08 30.99z"
        transform="matrix(-0.2628,-0.4687,0.4687,-0.2628,28.2996,54.7005)"
  />
 </g>
</svg>
