<?xml version="1.0" encoding="UTF-8" standalone="yes"?>
<svg version="1.1" width="64" height="64" color-interpolation="linearRGB"
     xmlns:svg="http://www.w3.org/2000/svg" xmlns="http://www.w3.org/2000/svg">
 <g>
  <path style="fill:#ce1126"
        d="M1 9H63V55H1V9z"
        transform="matrix(1.0322,0,0,0.3478,-1.0322,4.8695)"
  />
  <path style="fill:#ffffff"
        d="M1 9H63V55H1V9z"
        transform="matrix(1.0322,0,0,0.3478,-1.0322,20.8695)"
  />
  <path style="fill:#000001"
        d="M1 9H63V55H1V9z"
        transform="matrix(1.0322,0,0,0.3478,-1.0322,36.8695)"
  />
  <path style="fill:none; stroke:#7e7e7e; stroke-width:1"
        d="M1 9H63V55H1V9z"
  />
  <path style="fill:none; stroke:#009e60; stroke-width:1.5"
        d="M29 28V37H32"
        transform="matrix(1,0,0,0.9166,0,2.1666)"
  />
  <path style="fill:none; stroke:#009e60; stroke-width:1.5"
        d="M15 37H26V31L24 34H17L22 27"
        transform="matrix(1,0,0,0.9166,0,2.1666)"
  />
  <path style="fill:none; stroke:#009e60; stroke-width:1.5"
        d="M36 37L38 36V34L39 37H41V32L42 37H44V26"
        transform="matrix(1,0,0,0.9166,0,2.1666)"
  />
  <path style="fill:none; stroke:#009e60; stroke-width:1.5"
        d="M29 28V37H32"
        transform="matrix(1,0,0,0.9166,17,2.0833)"
  />
 </g>
</svg>
