<?xml version="1.0" encoding="UTF-8" standalone="yes"?>
<svg version="1.1" width="64" height="64" color-interpolation="linearRGB"
     xmlns:svg="http://www.w3.org/2000/svg" xmlns="http://www.w3.org/2000/svg">
 <g>
  <path style="fill:#ffffff"
        d="M1 9H63V55H1V9z"
        transform="matrix(1.0322,0,0,1.0434,-1.0322,-1.3913)"
  />
  <path style="fill:#010101"
        d="M1 9H63V55H1V9z"
        transform="matrix(1.0322,0,0,0.3043,-1.0322,5.2608)"
  />
  <path style="fill:#bb0000"
        d="M1 9H63V55H1V9z"
        transform="matrix(1.0322,0,0,0.3478,-1.0322,20.8695)"
  />
  <path style="fill:#006600"
        d="M1 9H63V55H1V9z"
        transform="matrix(1.0322,0,0,0.3043,-1.0322,39.2608)"
  />
  <path style="fill:#ffffff"
        d="M1 9H63V55H1V9z"
        transform="matrix(0.243,0.5436,-0.0345,0.0154,25.3297,13.6081)"
  />
  <path style="fill:#ffffff"
        d="M1 9H63V55H1V9z"
        transform="matrix(-0.2558,0.5377,-0.0342,-0.0162,41.2831,14.8137)"
  />
  <path style="fill:none; stroke:#7e7e7e; stroke-width:1"
        d="M1 9H63V55H1V9z"
  />
  <path style="fill:#bb0000"
        d="M32 17C21 17 21 48 32 48C43 48 44 17 32 17z"
  />
  <path style="fill:#ffffff"
        d="M32 17C21 17 21 48 32 48C43 48 44 17 32 17z"
        transform="matrix(0.2376,0,0,1,24.3962,0)"
  />
  <path style="fill:#010101"
        d="M32 17C21 17 21 48 32 48C43 48 44 17 32 17z"
        transform="matrix(-0.3431,0,0,0.5161,37.171,15.2258)"
  />
  <path style="fill:#010101"
        d="M32 17C21 17 21 48 32 48C43 48 44 17 32 17z"
        transform="matrix(-0.3431,0,0,0.5161,49.171,15.2258)"
  />
 </g>
</svg>
