<?xml version="1.0" encoding="UTF-8" standalone="yes"?>
<svg version="1.1" width="64" height="64" color-interpolation="linearRGB"
     xmlns:svg="http://www.w3.org/2000/svg" xmlns="http://www.w3.org/2000/svg">
 <g>
  <path style="fill:#009e49"
        d="M0 8V56L64 8H0z"
  />
  <path style="fill:#ce1126"
        d="M0 8V56L64 8H0z"
        transform="matrix(-1,-0,0,-1,64,64)"
  />
  <path style="fill:#fcd116"
        d="M48 8L0 44V48L52 8H48z"
  />
  <path style="fill:#fcd116"
        d="M48 8L0 44V48L52 8H48z"
        transform="matrix(-1,-0,0,-1,64,64)"
  />
  <path style="fill:#010101"
        d="M51 8L0 47V56H13L64 17V8H51z"
  />
  <path style="fill:none; stroke:#7e7e7e; stroke-width:1"
        d="M1 9H63V55H1V9z"
  />
  <path style="fill:#ffffff"
        d="M36.78 29.48H45.35L48 21.33L50.64 29.48H59.21L52.28 34.51L54.93 42.66L48 37.63L41.06 42.66L43.71 34.51L36.78 29.48z"
        transform="matrix(0.447,-0.3253,0.3253,0.447,-10.0715,41.4968)"
  />
  <path style="fill:#ffffff"
        d="M36.78 29.48H45.35L48 21.33L50.64 29.48H59.21L52.28 34.51L54.93 42.66L48 37.63L41.06 42.66L43.71 34.51L36.78 29.48z"
        transform="matrix(0.447,-0.3253,0.3253,0.447,9.9284,25.4968)"
  />
 </g>
</svg>
