<?xml version="1.0" encoding="UTF-8" standalone="yes"?>
<svg version="1.1" width="64" height="64" color-interpolation="linearRGB"
     xmlns:svg="http://www.w3.org/2000/svg" xmlns="http://www.w3.org/2000/svg">
 <g>
  <path style="fill:#ffb700"
        d="M1 9H63V55H1V9z"
        transform="matrix(1.0322,0,0,1.0434,-1.0322,-1.3913)"
  />
  <path style="fill:none; stroke:#7e7e7e; stroke-width:1"
        d="M1 9H63V55H1V9z"
  />
  <path style="fill:#8d2028"
        d="M1 9H63V55H1V9z"
        transform="matrix(0.6451,0,0,0.8695,19.3548,4.1739)"
  />
  <path style="fill:#005641"
        d="M1 9H63V55H1V9z"
        transform="matrix(0.0967,0,0,0.8695,3.9032,4.1739)"
  />
  <path style="fill:#ff5b00"
        d="M1 9H63V55H1V9z"
        transform="matrix(0.0967,0,0,0.8695,9.9032,4.1739)"
  />
  <path style="fill:#ffb700"
        d="M28 16C28 16 22 25 26 38C25 42 23 41 27 43C28 39 34 39 31 36C31.62 36.62 35 38 34 34C33.82 33.3 35 39 35 39C35 39 36 43 34 44C32 45 31 44 31 46C33 46 37 46 37 46C37 46 38 45 37 44C36 43 38 42 38 42V40C38 40 40.1 35.53 41 34C41.89 32.46 39.11 39.53 39.11 39.53C40.75 38.82 43.87 37.41 46 36C46 37 40 36 47 41C48 44 47 44 47 44C47 44 44 44 44 46C45 46 50 46 50 46C50 46 51 45 49 44C47 43 50 42 50 42L49 40L46 36C46 36 50 40 52 41C52 43 52 45 52 45L50 46H55C55 46 56 45 54 44C52 43 55 42 55 42L54 41C54 41 54 37 58 32C58 29 55 29 55 29C55 29 58.12 23 54 23C49 23 40 20 45 19C50 18 55 22 55 20C55 18 53 18 53 19C53 20 43 15 41 17C38.76 19.23 40 25 50 25C59.21 25 52 28 52 28C52 28 40.68 29.1 38 30C42 28 40 22 39 20C38 18 32 18 30 20C28.41 21.58 31 22 34 23C37 24 28 23 29 24C30 25 33 28 32 28C31 28 34 25 34 26C34 27 27 30 30 34C29 35 29 36 28 33C27 30 28 16 28 16z"
  />
 </g>
</svg>
