<?xml version="1.0" encoding="UTF-8" standalone="yes"?>
<svg version="1.1" width="64" height="64" color-interpolation="linearRGB"
     xmlns:svg="http://www.w3.org/2000/svg" xmlns="http://www.w3.org/2000/svg">
 <g>
  <path style="fill:#bf092f"
        d="M1 9H63V51H1V9z"
        transform="matrix(1.0322,0,0,1.0476,-1.0322,-1.4285)"
  />
  <path style="fill:#ffffff"
        d="M1 9H63V51H1V9z"
        transform="matrix(1.0322,0,0,0.0952,-1.0322,11.1428)"
  />
  <path style="fill:#ffffff"
        d="M1 9H63V51H1V9z"
        transform="matrix(1.0322,0,0,0.0952,-1.0322,19.1428)"
  />
  <path style="fill:#ffffff"
        d="M1 9H63V51H1V9z"
        transform="matrix(1.0322,0,0,0.0952,-1.0322,27.1428)"
  />
  <path style="fill:#ffffff"
        d="M1 9H63V51H1V9z"
        transform="matrix(1.0322,0,0,0.0952,-1.0322,35.1428)"
  />
  <path style="fill:#ffffff"
        d="M1 9H63V51H1V9z"
        transform="matrix(1.0322,0,0,0.0952,-1.0322,43.1428)"
  />
  <path style="fill:#002868"
        d="M1 9H63V51H1V9z"
        transform="matrix(0.387,0,0,0.4761,-0.387,3.7142)"
  />
  <path style="fill:none; stroke:#7e7e7e; stroke-width:1"
        d="M1 9H63V51H1V9z"
  />
  <path style="fill:#ffffff"
        d="M36.78 29.48H45.35L48 21.33L50.64 29.48H59.21L52.28 34.51L54.93 42.66L48 37.63L41.06 42.66L43.71 34.51L36.78 29.48z"
        transform="matrix(0.5872,0,0,0.5872,-16.8182,-1.1954)"
  />
 </g>
</svg>
