<?xml version="1.0" encoding="UTF-8" standalone="yes"?>
<svg version="1.1" width="64" height="64" color-interpolation="linearRGB"
     xmlns:svg="http://www.w3.org/2000/svg" xmlns="http://www.w3.org/2000/svg">
 <g>
  <path style="fill:#00209f"
        d="M1 9H63V55H1V9z"
        transform="matrix(1.0322,0,0,0.3478,-1.0322,4.8695)"
  />
  <path style="fill:#ffffff"
        d="M1 9H63V55H1V9z"
        transform="matrix(1.0322,0,0,0.3478,-1.0322,20.8695)"
  />
  <path style="fill:#009542"
        d="M1 9H63V55H1V9z"
        transform="matrix(1.0322,0,0,0.3478,-1.0322,36.8695)"
  />
  <path style="fill:none; stroke:#7e7e7e; stroke-width:1"
        d="M1 9H63V55H1V9z"
  />
  <path style="fill:#000100"
        d="M22 39L23 37H24L29 29V25H31V29L36 37H37L38 39H22z"
        transform="matrix(1,0,0,1,2,0)"
  />
  <path style="fill:none; stroke:#000100; stroke-width:6"
        d="M32 16C23.16 16 16 23.16 16 32C16 40.83 32 48 32 48C32 48 48 40.83 48 32C48 23.16 40.83 16 32 16z"
        transform="matrix(0.2222,0,0,0.2777,24.8884,21.1107)"
  />
 </g>
</svg>
