<?xml version="1.0" encoding="UTF-8" standalone="yes"?>
<svg version="1.1" width="64" height="64" color-interpolation="linearRGB"
     xmlns:svg="http://www.w3.org/2000/svg" xmlns="http://www.w3.org/2000/svg">
 <g>
  <path style="fill:#0046ae"
        d="M1 9H63V55H1V9z"
        transform="matrix(0.3225,0,0,1.0434,-0.3225,-1.3913)"
  />
  <path style="fill:#ffd200"
        d="M1 9H63V55H1V9z"
        transform="matrix(0.387,0,0,1.0434,19.6129,-1.3913)"
  />
  <path style="fill:#cc082f"
        d="M1 9H63V55H1V9z"
        transform="matrix(0.3225,0,0,1.0434,43.6774,-1.3913)"
  />
  <path style="fill:none; stroke:#7e7e7e; stroke-width:1"
        d="M1 9H63V55H1V9z"
  />
  <path style="fill:#86632d"
        d="M23 36V18L25 16L27 17V18L31 19C31 19 31 15 28 15C29 13 36 10 34 15C34 17 34 19 34 19L38 18V17L40 16L42 18V36L39 33L38 34L40 37L39 38L37 34L34 35L37 39L32 41L27 39L30 35L27 34L25 38L24 37L26 34L25 33L23 36z"
        transform="matrix(0.8219,0,0,0.8219,5.8024,10.301)"
  />
  <path style="fill:#cc082f"
        d="M1 9H63V55H1V9z"
        transform="matrix(0.1458,0,0,0.0893,27.8486,26.7574)"
  />
  <path style="fill:#0046ae"
        d="M1 9H63V55H1V9z"
        transform="matrix(0.1458,0,0,0.0893,27.8486,30.867)"
  />
  <path style="fill:#ffd200"
        d="M29 22C29 22 29 25 31 25C33 25 32 25 34 25C36 25 36 22 36 22C36 22 37 25 35 26C33 27 35 29 34 30C33 31 32 31 31 30C30 29 32 27 30 26C28 25 29 22 29 22z"
        transform="matrix(0.8219,0,0,0.8219,5.8024,10.301)"
  />
 </g>
</svg>
