<?xml version="1.0" encoding="UTF-8" standalone="yes"?>
<svg version="1.1" width="64" height="64" color-interpolation="linearRGB"
     xmlns:svg="http://www.w3.org/2000/svg" xmlns="http://www.w3.org/2000/svg">
 <g>
  <path style="fill:#d3ae3a"
        d="M1 9H63V55H1V9z"
        transform="matrix(1.0322,0,0,1.0434,-1.0322,-1.3913)"
  />
  <path style="fill:#c40106"
        d="M1 9H63V55H1V9z"
        transform="matrix(0.9032,0,0,0.8695,3.0967,4.1739)"
  />
  <path style="fill:#d3ae3a"
        d="M32.49 13.03C33.5 12.93 33.7 12.94 34.44 13.13C33.49 13.57 31.67 12.73 31.67 12.73C31.67 12.73 28.11 10.12 29.01 11.53C33.66 16.69 37.67 13.2 40.11 16.17C40.94 17.18 41.23 19.87 41.23 19.87L39.89 21.13C39.89 21.13 40.05 17.97 39.43 17.05C38.02 14.98 33.36 15.31 33.36 15.31L29.94 15.88L26.73 11.34L25.64 14.17C25.64 14.17 30.06 18.43 33.08 17.88C30.84 21.34 25.55 17.04 25.55 17.04L27.08 19.9C27.08 19.9 31.23 20.41 33.08 19.59C32.02 20.74 28.51 21.21 28.51 21.21L25.32 20.75L27.65 23.19C27.65 23.19 31.56 22.48 33.36 21.31C32.23 22.44 29.36 24.33 29.36 24.33L25.39 24.58L27.65 26.63C27.65 26.63 31.96 24.64 33.65 23.3C32.49 24.95 28.79 27.42 28.79 27.42L25.31 28.08L27.65 30C27.65 30 31.87 26.32 34.5 25.3C32.72 26.95 28.77 30.71 28.77 30.71L25.27 31.47L29.31 32.85C29.31 32.85 32.52 28.49 35.07 27.02C33.37 29.33 29.05 34.66 29.05 34.66L25.11 35.75L29.08 37.38C29.08 37.38 32.73 29.73 37.07 28.44C35.84 31.08 34.61 34.65 31.65 35.58C32.09 36.92 35 36 35 36C35 36 36.05 30.57 39.07 30.44L36.9 33.49C37.01 34.74 39.24 33.07 39.93 31.87H40.21C39.02 34.71 36.93 36.29 34.22 37.58C34.27 39.27 33.14 40.14 31.65 40.72C30.85 39.25 28.71 38.15 27.65 39.86C28.49 39.98 29.24 40.14 29.36 41.01C28.03 40.53 26.51 41.86 26.51 41.86L28.87 42.35L29.94 45.62L30.52 44.1C30.52 44.1 32.46 42.8 33.6 45.29C34.72 44.48 33.08 41.58 33.08 41.58L42.21 36.15L42.5 36.44C40.93 38.91 38.67 41.03 35.65 41.29C36.66 43.13 40.21 41.58 40.21 41.58C40.21 41.58 37.76 42.92 37.17 44.02C35.95 46.28 41.36 43.86 41.36 43.86L38.93 46.8L40.49 47.56C40.49 47.56 42.28 45.6 43.07 44.72C42.7 46.43 43.4 47.79 41.51 49.77L45 53V18L43.25 15.46C43.25 15.46 43.58 15.14 44.12 15.04L42.5 13.88L43.54 13.27L41.36 12.46L42.5 10.74C40.68 11.96 39.11 10.26 37.01 10.76C36.11 10.96 35.38 11.96 34.54 11.79C33.82 11.67 32.99 12.1 32.49 13.03z"
        transform="matrix(0.5854,0,0,0.5854,6.4135,15.7362)"
  />
  <path style="fill:#d3ae3a"
        d="M32.49 13.03C33.5 12.93 33.7 12.94 34.44 13.13C33.49 13.57 31.67 12.73 31.67 12.73C31.67 12.73 28.11 10.12 29.01 11.53C33.66 16.69 37.67 13.2 40.11 16.17C40.94 17.18 41.23 19.87 41.23 19.87L39.89 21.13C39.89 21.13 40.05 17.97 39.43 17.05C38.02 14.98 33.36 15.31 33.36 15.31L29.94 15.88L26.73 11.34L25.64 14.17C25.64 14.17 30.06 18.43 33.08 17.88C30.84 21.34 25.55 17.04 25.55 17.04L27.08 19.9C27.08 19.9 31.23 20.41 33.08 19.59C32.02 20.74 28.51 21.21 28.51 21.21L25.32 20.75L27.65 23.19C27.65 23.19 31.56 22.48 33.36 21.31C32.23 22.44 29.36 24.33 29.36 24.33L25.39 24.58L27.65 26.63C27.65 26.63 31.96 24.64 33.65 23.3C32.49 24.95 28.79 27.42 28.79 27.42L25.31 28.08L27.65 30C27.65 30 31.87 26.32 34.5 25.3C32.72 26.95 28.77 30.71 28.77 30.71L25.27 31.47L29.31 32.85C29.31 32.85 32.52 28.49 35.07 27.02C33.37 29.33 29.05 34.66 29.05 34.66L25.11 35.75L29.08 37.38C29.08 37.38 32.73 29.73 37.07 28.44C35.84 31.08 34.61 34.65 31.65 35.58C32.09 36.92 35 36 35 36C35 36 36.05 30.57 39.07 30.44L36.9 33.49C37.01 34.74 39.24 33.07 39.93 31.87H40.21C39.02 34.71 36.93 36.29 34.22 37.58C34.27 39.27 33.14 40.14 31.65 40.72C30.85 39.25 28.71 38.15 27.65 39.86C28.49 39.98 29.24 40.14 29.36 41.01C28.03 40.53 26.51 41.86 26.51 41.86L28.87 42.35L29.94 45.62L30.52 44.1C30.52 44.1 32.46 42.8 33.6 45.29C34.72 44.48 33.08 41.58 33.08 41.58L42.21 36.15L42.5 36.44C40.93 38.91 38.67 41.03 35.65 41.29C36.66 43.13 40.21 41.58 40.21 41.58C40.21 41.58 37.76 42.92 37.17 44.02C35.95 46.28 41.36 43.86 41.36 43.86L38.93 46.8L40.49 47.56C40.49 47.56 42.28 45.6 43.07 44.72C42.7 46.43 43.4 47.79 41.51 49.77L45 53V18L43.25 15.46C43.25 15.46 43.58 15.14 44.12 15.04L42.5 13.88L43.54 13.27L41.36 12.46L42.5 10.74C40.68 11.96 39.11 10.26 37.01 10.76C36.11 10.96 35.38 11.96 34.54 11.79C33.82 11.67 32.99 12.1 32.49 13.03z"
        transform="matrix(-0.5974,0,0,0.5854,59.06,15.7362)"
  />
  <path style="fill:#d3ae3a"
        d="M30 21H35V19C35 19 33 16 30 19C30 21 30 21 30 21z"
  />
  <path style="fill:none; stroke:#7e7e7e; stroke-width:1"
        d="M1 9H63V55H1V9z"
  />
 </g>
</svg>
