<?xml version="1.0" encoding="UTF-8" standalone="yes"?>
<svg version="1.1" width="64" height="64" color-interpolation="linearRGB"
     xmlns:svg="http://www.w3.org/2000/svg" xmlns="http://www.w3.org/2000/svg">
 <g>
  <path style="fill:#d20000"
        d="M1 9H63V55H1V9z"
        transform="matrix(1.0322,0,0,1.0434,-1.0322,-1.3913)"
  />
  <path style="fill:#ffe600"
        d="M64 8L0 56H10L54 8H64z"
  />
  <path style="fill:#ffe600"
        d="M64 8L0 56H10L54 8H64z
           M0 8L64 56H54L10 8H0z
           M28 8L36 56H28L36 8H28z
           M0 36L64 28V36L0 28L0 36z"
        transform="matrix(1,0,0,1,0,0)"
  />
  <path style="fill:#ffe600"
        d="M32 16C23.16 16 16 23.16 16 32C16 40.83 23.16 48 32 48C40.83 48 48 40.83 48 32C48 23.16 40.83 16 32 16z"
        transform="matrix(0.4802,0,0,0.4802,16.6316,16.6316)"
  />
  <path style="fill:none; stroke:#d20000; stroke-width:8"
        d="M32 16C23.16 16 16 23.16 16 32C16 40.83 23.16 48 32 48C40.83 48 48 40.83 48 32C48 23.16 40.83 16 32 16z"
        transform="matrix(0.4802,0,0,0.4802,16.6316,16.6316)"
  />
  <path style="fill:none; stroke:#7e7e7e; stroke-width:1"
        d="M1 9H63V55H1V9z"
  />
 </g>
</svg>
