<?xml version="1.0" encoding="UTF-8" standalone="yes"?>
<svg version="1.1" width="64" height="64" color-interpolation="linearRGB"
     xmlns:svg="http://www.w3.org/2000/svg" xmlns="http://www.w3.org/2000/svg">
 <g>
  <path style="fill:#00785d"
        d="M1 9H63V55H1V9z"
        transform="matrix(1.0322,0,0,1.0434,-1.0322,-1.3913)"
  />
  <path style="fill:#fbd116"
        d="M36.78 29.48H45.35L48 21.33L50.64 29.48H59.21L52.28 34.51L54.93 42.66L48 37.63L41.06 42.66L43.71 34.51L36.78 29.48z"
        transform="matrix(0.3312,0,0,0.3312,16.6008,9.267)"
  />
  <path style="fill:#fbd116"
        d="M36.78 29.48H45.35L48 21.33L50.64 29.48H59.21L52.28 34.51L54.93 42.66L48 37.63L41.06 42.66L43.71 34.51L36.78 29.48z"
        transform="matrix(0.1711,0.1711,-0.1711,0.1711,36.7613,9.1244)"
  />
  <path style="fill:#fbd116"
        d="M36.78 29.48H45.35L48 21.33L50.64 29.48H59.21L52.28 34.51L54.93 42.66L48 37.63L41.06 42.66L43.71 34.51L36.78 29.48z"
        transform="matrix(0.1711,-0.1711,0.1711,0.1711,12.1452,25.5562)"
  />
  <path style="fill:#fbd116"
        d="M36.78 29.48H45.35L48 21.33L50.64 29.48H59.21L52.28 34.51L54.93 42.66L48 37.63L41.06 42.66L43.71 34.51L36.78 29.48z"
        transform="matrix(0.0964,0.222,-0.222,0.0964,45.9726,14.0738)"
  />
  <path style="fill:#fbd116"
        d="M36.78 29.48H45.35L48 21.33L50.64 29.48H59.21L52.28 34.51L54.93 42.66L48 37.63L41.06 42.66L43.71 34.51L36.78 29.48z"
        transform="matrix(0.222,-0.0964,0.0964,0.222,8.5042,24.9281)"
  />
  <path style="fill:none; stroke:#7e7e7e; stroke-width:1"
        d="M1 9H63V55H1V9z"
  />
  <path style="fill:#ffffff"
        d="M32 35C32 35 27 26 29 20L31 22C31 22 29 31 34 33C31 29 31 22 35 18C39 22 39 29 36 33C41 31 39 22 39 22L41 20C43 26 38 35 38 35H32z"
        transform="matrix(0.6153,0,0,0.6153,10.9675,14.923)"
  />
  <path style="fill:#ffffff"
        d="M32 35C32 35 27 26 29 20L31 22C31 22 29 31 34 33C31 29 31 22 35 18C39 22 39 29 36 33C41 31 39 22 39 22L41 20C43 26 38 35 38 35H32z"
        transform="matrix(0.1499,-0.5968,0.5968,0.1499,5.5914,51.9265)"
  />
  <path style="fill:#ffffff"
        d="M32 35C32 35 27 26 29 20L31 22C31 22 29 31 34 33C31 29 31 22 35 18C39 22 39 29 36 33C41 31 39 22 39 22L41 20C43 26 38 35 38 35H32z"
        transform="matrix(0.0985,0.6074,-0.6074,0.0985,50.1558,11.2318)"
  />
  <path style="fill:#ffffff"
        d="M1 9H63V55H1V9z"
        transform="matrix(0.3387,0,0,0.0434,21.6612,39.6086)"
  />
  <path style="fill:#ffffff"
        d="M1 9H63V55H1V9z"
        transform="matrix(0.3064,0,0,0.0217,22.6935,42.8043)"
  />
  <path style="fill:#ffffff"
        d="M1 9H63V55H1V9z"
        transform="matrix(0.2419,0,0,0.0217,24.758,44.8043)"
  />
  <path style="fill:#ffffff"
        d="M1 9H63V55H1V9z"
        transform="matrix(0.1129,0,0,0.0217,28.887,46.8043)"
  />
 </g>
</svg>
