<?xml version="1.0" encoding="UTF-8" standalone="yes"?>
<svg version="1.1" width="64" height="64" color-interpolation="linearRGB"
     xmlns:svg="http://www.w3.org/2000/svg" xmlns="http://www.w3.org/2000/svg">
 <g>
  <path style="fill:#0065c6"
        d="M1 9H63V55H1V9z"
        transform="matrix(1.0322,0,0,1.0434,-1.0322,-1.3913)"
  />
  <path style="fill:#ffffff"
        d="M1 9H63V55H1V9z"
        transform="matrix(1.0322,0,0,0.3478,-1.0322,20.8695)"
  />
  <path style="fill:none; stroke:#7e7e7e; stroke-width:1"
        d="M1 9H63V55H1V9z"
  />
  <linearGradient id="gradient0" gradientUnits="userSpaceOnUse" x1="43" y1="28" x2="43" y2="46">
   <stop offset="0.1944" stop-color="#84d6ff"/>
   <stop offset="0.2222" stop-color="#8dc32e"/>
   <stop offset="0.4583" stop-color="#84d6ff"/>
  </linearGradient>
  <path style="fill:url(#gradient0)"
        d="M22 36L27 27L32 36H22z"
        transform="matrix(1,0,0,1,5,0)"
  />
  <path style="fill:none; stroke:#fdce12; stroke-width:4"
        d="M32 16C23.16 16 16 23.16 16 32C16 40.83 23.16 48 32 48C40.83 48 48 40.83 48 32C48 23.16 40.83 16 32 16z"
        transform="matrix(0.4285,0,0,0.4285,18.2854,18.2854)"
  />
 </g>
</svg>
