<?xml version="1.0" encoding="UTF-8" standalone="yes"?>
<svg version="1.1" width="64" height="64" color-interpolation="linearRGB"
     xmlns:svg="http://www.w3.org/2000/svg" xmlns="http://www.w3.org/2000/svg">
 <g>
  <path style="fill:#00297f"
        d="M1 9H63V55H1V9z"
        transform="matrix(1.0322,0,0,1.0434,-1.0322,-1.3913)"
  />
  <path style="fill:#ffc71c"
        d="M1 9H63V55H1V9z"
        transform="matrix(1.0322,0,0,0.1739,-1.0322,26.4347)"
  />
  <path style="fill:none; stroke:#7e7e7e; stroke-width:1"
        d="M1 9H63V55H1V9z"
  />
  <path style="fill:#ffffff"
        d="M32.23 27.97L31.35 30.71L28.66 29.69L30.25 32.09L27.78 33.56L30.64 33.81L30.25 36.66L32.23 34.57L34.22 36.66L33.82 33.81L36.69 33.56L34.21 32.09L35.81 29.69L33.11 30.71L32.23 27.97z"
        transform="matrix(1.3388,0,0,1.3416,-24.4126,1.5676)"
  />
  <path style="fill:#ffffff"
        d="M32.23 27.97L31.35 30.71L28.66 29.69L30.25 32.09L27.78 33.56L30.64 33.81L30.25 36.66L32.23 34.57L34.22 36.66L33.82 33.81L36.69 33.56L34.21 32.09L35.81 29.69L33.11 30.71L32.23 27.97z"
        transform="matrix(1.2005,-0.5937,0.5925,1.203,-39.1065,25.1866)"
  />
 </g>
</svg>
