<?xml version="1.0" encoding="UTF-8" standalone="yes"?>
<svg version="1.1" width="64" height="64" color-interpolation="linearRGB"
     xmlns:svg="http://www.w3.org/2000/svg" xmlns="http://www.w3.org/2000/svg">
 <g>
  <path style="fill:#db151a"
        d="M1 9H63V55H1V9z"
        transform="matrix(1.0322,0,0,1.0434,-1.0322,-1.3913)"
  />
  <path style="fill:#ffffff"
        d="M1 9H63V55H1V9z"
        transform="matrix(0.7096,0,0,0.3478,19.2903,4.8695)"
  />
  <path style="fill:#008000"
        d="M1 9H63V55H1V9z"
        transform="matrix(0.7096,0,0,0.3478,19.2903,36.8695)"
  />
  <path style="fill:none; stroke:#7e7e7e; stroke-width:1"
        d="M1 9H63V55H1V9z"
  />
  <path style="fill:#ffffff"
        d="M16 12C16 12 11 24 4 24C2 23 4 23 4 23C4 23 10 21 14 13
           M8 12L9 14L8 18H3C3 18 8 22 9 21C10 20 11 18 11 18L10 14L11 12C9 10 8 12 8 12z"
        transform="matrix(1,0,0,1,1,0)"
  />
  <path style="fill:#ffffff"
        d="M16 12C16 12 11 24 4 24C2 23 4 23 4 23C4 23 10 21 14 13"
        transform="matrix(-1.0145,0,0,1,20.2324,0)"
  />
 </g>
</svg>
