<?xml version="1.0" encoding="UTF-8" standalone="yes"?>
<svg version="1.1" width="64" height="64" color-interpolation="linearRGB"
     xmlns:svg="http://www.w3.org/2000/svg" xmlns="http://www.w3.org/2000/svg">
 <g>
  <path style="fill:#000000"
        d="M1 9H63V55H1V9z"
        transform="matrix(1.0322,0,0,1.0434,-1.0322,-1.3913)"
  />
  <path style="fill:#ce1126"
        d="M0 8L64 56V8H0z"
  />
  <path style="fill:none; stroke:#7e7e7e; stroke-width:1"
        d="M1 9H63V55H1V9z"
  />
  <path style="fill:#ffffff"
        d="M36.78 29.48H45.35L48 21.33L50.64 29.48H59.21L52.28 34.51L54.93 42.66L48 37.63L41.06 42.66L43.71 34.51L36.78 29.48z"
        transform="matrix(0.3083,0,0,0.3083,2.4433,19.7556)"
  />
  <path style="fill:#ffffff"
        d="M36.78 29.48H45.35L48 21.33L50.64 29.48H59.21L52.28 34.51L54.93 42.66L48 37.63L41.06 42.66L43.71 34.51L36.78 29.48z"
        transform="matrix(0.3083,0,0,0.3083,-4.5566,27.7556)"
  />
  <path style="fill:#ffffff"
        d="M36.78 29.48H45.35L48 21.33L50.64 29.48H59.21L52.28 34.51L54.93 42.66L48 37.63L41.06 42.66L43.71 34.51L36.78 29.48z"
        transform="matrix(0.3083,0,0,0.3083,9.4433,27.7556)"
  />
  <path style="fill:#ffffff"
        d="M36.78 29.48H45.35L48 21.33L50.64 29.48H59.21L52.28 34.51L54.93 42.66L48 37.63L41.06 42.66L43.71 34.51L36.78 29.48z"
        transform="matrix(0.3083,0,0,0.3083,2.4433,39.7556)"
  />
  <path style="fill:#ffffff"
        d="M36.78 29.48H45.35L48 21.33L50.64 29.48H59.21L52.28 34.51L54.93 42.66L48 37.63L41.06 42.66L43.71 34.51L36.78 29.48z"
        transform="matrix(0.1745,0,0,0.1745,12.3635,38.4624)"
  />
  <path style="fill:#fcd116"
        d="M31 29C31 29 38 21 43 24C48 27 35 17 35 17C35 17 39 19 42 18C45 17 45 22 47 22C48 20 51 17 57 17C60 24 51 23 51 23C51 23 57.99 24 59 29C59.13 29.68 59 31.99 59 32C58.96 32.68 57 30.29 57 31C57 38 54.46 42.48 50 41C58 38 55 31 55 31H53C53 31 54 41 48 41C54 35 51 31 51 31C51 31 47 31 49 35C51 40 39 34 42 28C37 34 31 29 31 29z"
        transform="matrix(0.7862,0,0,0.7862,9.6265,2.3618)"
  />
 </g>
</svg>
