<?xml version="1.0" encoding="UTF-8" standalone="yes"?>
<svg version="1.1" width="64" height="64" color-interpolation="linearRGB"
     xmlns:svg="http://www.w3.org/2000/svg" xmlns="http://www.w3.org/2000/svg">
 <g>
  <path style="fill:#0037a8"
        d="M1 9H63V55H1V9z"
        transform="matrix(1.0322,0,0,0.5217,-1.0322,3.3043)"
  />
  <path style="fill:#ce1126"
        d="M1 9H63V55H1V9z"
        transform="matrix(1.0322,0,0,0.5217,-1.0322,27.3043)"
  />
  <path style="fill:#ffffff"
        d="M0 8L33 32L0 56V8z"
  />
  <path style="fill:none; stroke:#7e7e7e; stroke-width:1"
        d="M1 9H63V55H1V9z"
  />
  <path style="fill:#fcd116"
        d="M19.97 36.5L16.12 33.73L12.28 36.53L13.71 31.98L9.88 29.17L14.62 29.13L16.09 24.59L17.59 29.12L22.32 29.13L18.51 31.96L19.97 36.5z"
        transform="matrix(0.3961,0.2909,-0.2909,0.3961,29.3717,15.088)"
  />
  <path style="fill:#fcd116"
        d="M19.97 36.5L16.12 33.73L12.28 36.53L13.71 31.98L9.88 29.17L14.62 29.13L16.09 24.59L17.59 29.12L22.32 29.13L18.51 31.96L19.97 36.5z"
        transform="matrix(0.3961,0.2909,-0.2909,0.3961,7.3717,-0.9119)"
  />
  <path style="fill:#fcd116"
        d="M19.97 36.5L16.12 33.73L12.28 36.53L13.71 31.98L9.88 29.17L14.62 29.13L16.09 24.59L17.59 29.12L22.32 29.13L18.51 31.96L19.97 36.5z"
        transform="matrix(0.3961,0.2909,-0.2909,0.3961,7.3717,32.088)"
  />
  <path style="fill:#fcd116"
        d="M19.97 36.5L16.12 33.73L12.28 36.53L13.71 31.98L9.88 29.17L14.62 29.13L16.09 24.59L17.59 29.12L22.32 29.13L18.51 31.96L19.97 36.5z"
        transform="matrix(-0.3456,1.2871,-1.2871,-0.3456,57.1378,22.2794)"
  />
  <path style="fill:#fcd116"
        d="M19.97 36.5L16.12 33.73L12.28 36.53L13.71 31.98L9.88 29.17L14.62 29.13L16.09 24.59L17.59 29.12L22.32 29.13L18.51 31.96L19.97 36.5z"
        transform="matrix(0.4459,1.2558,-1.2558,0.4459,43.0431,-1.6942)"
  />
 </g>
</svg>
