<?xml version="1.0" encoding="UTF-8" standalone="yes"?>
<svg version="1.1" width="64" height="64" color-interpolation="linearRGB"
     xmlns:svg="http://www.w3.org/2000/svg" xmlns="http://www.w3.org/2000/svg">
 <g>
  <path style="fill:#0051ba"
        d="M0 8V56L64 8H0z"
  />
  <path style="fill:#215b32"
        d="M0 8V56L64 8H0z"
        transform="matrix(-1,-0,0,-1,64,64)"
  />
  <path style="fill:#fcd116"
        d="M60 8L0 52V56H4L64 12V8H60z"
  />
  <path style="fill:none; stroke:#7e7e7e; stroke-width:1"
        d="M1 9H63V55H1V9z"
  />
  <path style="fill:#ffffff"
        d="M36.78 29.48H45.35L48 21.33L50.64 29.48H59.21L52.28 34.51L54.93 42.66L48 37.63L41.06 42.66L43.71 34.51L36.78 29.48z"
        transform="matrix(0.4204,0,0,0.4204,-13.6792,1.3647)"
  />
  <path style="fill:#ffffff"
        d="M36.78 29.48H45.35L48 21.33L50.64 29.48H59.21L52.28 34.51L54.93 42.66L48 37.63L41.06 42.66L43.71 34.51L36.78 29.48z"
        transform="matrix(0.4204,0,0,0.4204,0.3207,1.3647)"
  />
  <path style="fill:#ffffff"
        d="M36.78 29.48H45.35L48 21.33L50.64 29.48H59.21L52.28 34.51L54.93 42.66L48 37.63L41.06 42.66L43.71 34.51L36.78 29.48z"
        transform="matrix(0.4204,0,0,0.4204,-6.6792,8.3647)"
  />
  <path style="fill:#ffffff"
        d="M36.78 29.48H45.35L48 21.33L50.64 29.48H59.21L52.28 34.51L54.93 42.66L48 37.63L41.06 42.66L43.71 34.51L36.78 29.48z"
        transform="matrix(0.4204,0,0,0.4204,-13.6792,15.3647)"
  />
  <path style="fill:#ffffff"
        d="M36.78 29.48H45.35L48 21.33L50.64 29.48H59.21L52.28 34.51L54.93 42.66L48 37.63L41.06 42.66L43.71 34.51L36.78 29.48z"
        transform="matrix(0.4204,0,0,0.4204,0.3207,15.3647)"
  />
 </g>
</svg>
