<?xml version="1.0" encoding="UTF-8" standalone="yes"?>
<svg version="1.1" width="64" height="64" color-interpolation="linearRGB"
     xmlns:svg="http://www.w3.org/2000/svg" xmlns="http://www.w3.org/2000/svg">
 <g>
  <path style="fill:#00853e"
        d="M1 9H63V55H1V9z"
        transform="matrix(0.3225,0,0,1.0434,-0.3225,-1.3913)"
  />
  <path style="fill:#e31b22"
        d="M1 9H63V55H1V9z"
        transform="matrix(0.3225,0,0,1.0434,43.6774,-1.3913)"
  />
  <path style="fill:#fdef41"
        d="M1 9H63V55H1V9z"
        transform="matrix(0.387,0,0,1.0434,19.6129,-1.3913)"
  />
  <path style="fill:#00853e"
        d="M36.78 29.48H45.35L48 21.33L50.64 29.48H59.21L52.28 34.51L54.93 42.66L48 37.63L41.06 42.66L43.71 34.51L36.78 29.48z"
        transform="matrix(0.8216,0,0,0.8216,-7.4397,5.8045)"
  />
  <path style="fill:none; stroke:#7e7e7e; stroke-width:1"
        d="M1 9H63V55H1V9z"
  />
 </g>
</svg>
