<?xml version="1.0" encoding="UTF-8" standalone="yes"?>
<svg version="1.1" width="64" height="64" color-interpolation="linearRGB"
     xmlns:svg="http://www.w3.org/2000/svg" xmlns="http://www.w3.org/2000/svg">
 <g>
  <path style="fill:#00335b"
        d="M1 9H63V55H1V9z"
        transform="matrix(1.0322,0,0,1.0434,-1.0322,-1.3913)"
  />
  <path style="fill:none; stroke:#7e7e7e; stroke-width:1.5"
        d="M1 9H63V55H1V9z"
        transform="matrix(0.5714,0,0,0.4255,0.2142,4.8829)"
  />
  <path style="fill:#00335b"
        d="M1 9H63V55H1V9z"
        transform="matrix(0.1944,0,0,0.4347,-0.1984,4.0869)"
  />
  <path style="fill:#ffffff"
        d="M1 9H63V55H1V9z"
        transform="matrix(0.1944,0,0,0.4347,11.8015,4.0869)"
  />
  <path style="fill:#d81c3f"
        d="M1 9H63V55H1V9z"
        transform="matrix(0.1944,0,0,0.4347,23.8015,4.0869)"
  />
  <path style="fill:none; stroke:#7e7e7e; stroke-width:1"
        d="M1 9H63V55H1V9z"
  />
  <path style="fill:#ffffff"
        d="M37 45L41 38L43 41V35H40L39 33H50L49 35H45V36H47L46 38H45V41L47 38L51 45L45 44L44 46L43 44L37 45z
           M42 43L41 40L40 43H42z
           M48 43L47 40L46 43H48z"
  />
  <path style="fill:#ffffff"
        d="M36.78 29.48H45.35L48 21.33L50.64 29.48H59.21L52.28 34.51L54.93 42.66L48 37.63L41.06 42.66L43.71 34.51L36.78 29.48z"
        transform="matrix(0.1974,0,0,0.1974,26.5209,31.4851)"
  />
  <path style="fill:#ffffff"
        d="M36.78 29.48H45.35L48 21.33L50.64 29.48H59.21L52.28 34.51L54.93 42.66L48 37.63L41.06 42.66L43.71 34.51L36.78 29.48z"
        transform="matrix(0.1974,0,0,0.1974,42.5209,31.4851)"
  />
  <path style="fill:#ffffff"
        d="M36.78 29.48H45.35L48 21.33L50.64 29.48H59.21L52.28 34.51L54.93 42.66L48 37.63L41.06 42.66L43.71 34.51L36.78 29.48z"
        transform="matrix(0.1974,0,0,0.1974,29.5209,41.4851)"
  />
  <path style="fill:#ffffff"
        d="M36.78 29.48H45.35L48 21.33L50.64 29.48H59.21L52.28 34.51L54.93 42.66L48 37.63L41.06 42.66L43.71 34.51L36.78 29.48z"
        transform="matrix(0.1974,0,0,0.1974,39.5209,41.4851)"
  />
  <path style="fill:#ffffff"
        d="M36.78 29.48H45.35L48 21.33L50.64 29.48H59.21L52.28 34.51L54.93 42.66L48 37.63L41.06 42.66L43.71 34.51L36.78 29.48z"
        transform="matrix(0.1974,0,0,0.1974,34.5209,44.4851)"
  />
 </g>
</svg>
