<?xml version="1.0" encoding="UTF-8" standalone="yes"?>
<svg version="1.1" width="64" height="64" color-interpolation="linearRGB"
     xmlns:svg="http://www.w3.org/2000/svg" xmlns="http://www.w3.org/2000/svg">
 <g>
  <path style="fill:#00247d"
        d="M1 9H63V55H1V9z"
        transform="matrix(1.0322,0,0,1.0434,-1.0322,-1.3913)"
  />
  <path style="fill:none; stroke:#7e7e7e; stroke-width:1"
        d="M1 9H63V55H1V9z"
  />
  <path style="fill:#ffcc00"
        d="M12 44C12 44 32.67 21.1 48 16C42 29 40 40 56 44C42 44 12 44 12 44z"
        transform="matrix(1,0,0,1,3,0)"
  />
  <path style="fill:#ffcc00"
        d="M1 9H63V55H1V9z"
        transform="matrix(0.7096,0,0,0.0869,14.2903,47.2173)"
  />
  <path style="fill:#ffffff"
        d="M36.78 29.48H45.35L48 21.33L50.64 29.48H59.21L52.28 34.51L54.93 42.66L48 37.63L41.06 42.66L43.71 34.51L36.78 29.48z"
        transform="matrix(0.2866,0,0,0.2866,-1.7591,5.2181)"
  />
  <path style="fill:#ffffff"
        d="M36.78 29.48H45.35L48 21.33L50.64 29.48H59.21L52.28 34.51L54.93 42.66L48 37.63L41.06 42.66L43.71 34.51L36.78 29.48z"
        transform="matrix(0.2843,0,0,0.2843,-8.6748,15.267)"
  />
  <path style="fill:#ffffff"
        d="M36.78 29.48H45.35L48 21.33L50.64 29.48H59.21L52.28 34.51L54.93 42.66L48 37.63L41.06 42.66L43.71 34.51L36.78 29.48z"
        transform="matrix(0.2397,0,0,0.2397,8.9651,14.1692)"
  />
  <path style="fill:#ffffff"
        d="M36.78 29.48H45.35L48 21.33L50.64 29.48H59.21L52.28 34.51L54.93 42.66L48 37.63L41.06 42.66L43.71 34.51L36.78 29.48z"
        transform="matrix(0.2866,0,0,0.2866,-1.7591,28.2181)"
  />
 </g>
</svg>
