<?xml version="1.0" encoding="UTF-8" standalone="yes"?>
<svg version="1.1" width="64" height="64" color-interpolation="linearRGB"
     xmlns:svg="http://www.w3.org/2000/svg" xmlns="http://www.w3.org/2000/svg">
 <g>
  <path style="fill:#dc231e"
        d="M1 9H63V55H1V9z"
        transform="matrix(1.0322,0,0,1.0434,-1.0322,-1.3913)"
  />
  <path style="fill:#ffc725"
        d="M0 56L64 32L0 7.99"
        transform="matrix(0.6875,0,0,1,0,0)"
  />
  <path style="fill:#010000"
        d="M0 56L64 32L0 7.99"
        transform="matrix(0.5,0,0,1,0,0)"
  />
  <path style="fill:none; stroke:#7e7e7e; stroke-width:1"
        d="M1 9H63V55H1V9z"
  />
  <path style="fill:#ffffff"
        d="M36.78 29.48H45.35L48 21.33L50.64 29.48H59.21L52.28 34.51L54.93 42.66L48 37.63L41.06 42.66L43.71 34.51L36.78 29.48z"
        transform="matrix(0.5819,-0.4372,0.4372,0.5819,-29.9771,33.4614)"
  />
 </g>
</svg>
