<?xml version="1.0" encoding="UTF-8" standalone="yes"?>
<svg version="1.1" width="64" height="64" color-interpolation="linearRGB"
     xmlns:svg="http://www.w3.org/2000/svg" xmlns="http://www.w3.org/2000/svg">
 <g>
  <path style="fill:#c10000"
        d="M1 9H63V55H1V9z"
        transform="matrix(1.0322,0,0,1.0434,-1.0322,-1.3913)"
  />
  <path style="fill:#ffffff"
        d="M1 9H63V55H1V9z"
        transform="matrix(0.387,0,0,0.5217,-0.387,3.3043)"
  />
  <path style="fill:#c10000"
        d=""
        transform="matrix(0.5,0,0,0.5,-4,6)"
  />
  <path style="fill:#c10000"
        d="M1 9H63V55H1V9z"
        transform="matrix(0.0645,0,0,0.3478,9.9354,8.8695)"
  />
  <path style="fill:#c10000"
        d="M1 9H63V55H1V9z"
        transform="matrix(0,-0.0645,0.3478,0,0.8695,22.0645)"
  />
  <path style="fill:none; stroke:#7e7e7e; stroke-width:1"
        d="M1 9H63V55H1V9z"
  />
 </g>
</svg>
