<?xml version="1.0" encoding="UTF-8" standalone="yes"?>
<svg version="1.1" width="64" height="64" color-interpolation="linearRGB"
     xmlns:svg="http://www.w3.org/2000/svg" xmlns="http://www.w3.org/2000/svg">
 <g>
  <path style="fill:#fe0000"
        d="M1 9H63V55H1V9z"
        transform="matrix(1.0322,0,0,1.0434,-1.0322,-1.3913)"
  />
  <path style="fill:#000095"
        d="M1 9H63V55H1V9z"
        transform="matrix(0.5161,0,0,0.5217,-0.5161,3.3043)"
  />
  <path style="fill:none; stroke:#7e7e7e; stroke-width:1"
        d="M1 9H63V55H1V9z"
  />
  <path style="fill:#ffffff"
        d="M14.5 10C13.11 10 12 11.11 12 12.5C12 13.88 13.11 15 14.5 15C15.88 15 17 13.88 17 12.5C17 11.11 15.88 10 14.5 10z"
        transform="matrix(1,0,0,1,2,8)"
  />
  <path style="fill:#ffffff"
        d="M15.25 8.16H13.53L14.39 4.17L15.25 8.16V8.16V8.16z"
        transform="matrix(1,0,0,1,2,8)"
  />
  <path style="fill:#ffffff"
        d="M15.25 8.16H13.53L14.39 4.17L15.25 8.16V8.16V8.16z"
        transform="matrix(0.8672,0.4978,-0.4978,0.8672,10.1531,2.4218)"
  />
  <path style="fill:#ffffff"
        d="M15.25 8.16H13.53L14.39 4.17L15.25 8.16V8.16V8.16z"
        transform="matrix(0.5537,0.8326,-0.8326,0.5537,18.8826,1.4675)"
  />
  <path style="fill:#ffffff"
        d="M15.25 8.16H13.53L14.39 4.17L15.25 8.16V8.16V8.16z"
        transform="matrix(0.0238,0.9997,-0.9997,0.0238,28.7315,5.6541)"
  />
  <path style="fill:#ffffff"
        d="M15.25 8.16H13.53L14.39 4.17L15.25 8.16V8.16V8.16z"
        transform="matrix(-0.4561,0.8898,-0.8898,-0.4561,34.3219,13.2164)"
  />
  <path style="fill:#ffffff"
        d="M15.25 8.16H13.53L14.39 4.17L15.25 8.16V8.16V8.16z"
        transform="matrix(-0.8399,0.5426,-0.5426,-0.8399,35.5019,23.1179)"
  />
  <path style="fill:#ffffff"
        d="M15.25 8.16H13.53L14.39 4.17L15.25 8.16V8.16V8.16z"
        transform="matrix(-0.9995,-0.0304,0.0304,-0.9995,30.747,33.4071)"
  />
  <path style="fill:#ffffff"
        d="M15.25 8.16H13.53L14.39 4.17L15.25 8.16V8.16V8.16z"
        transform="matrix(-0.8141,-0.5806,0.5806,-0.8141,21.2494,39.1351)"
  />
  <path style="fill:#ffffff"
        d="M15.25 8.16H13.53L14.39 4.17L15.25 8.16V8.16V8.16z"
        transform="matrix(-0.4416,-0.8971,0.8971,-0.4416,11.7914,39.0848)"
  />
  <path style="fill:#ffffff"
        d="M15.25 8.16H13.53L14.39 4.17L15.25 8.16V8.16V8.16z"
        transform="matrix(0.0425,-0.999,0.999,0.0425,3.3517,34.4735)"
  />
  <path style="fill:#ffffff"
        d="M15.25 8.16H13.53L14.39 4.17L15.25 8.16V8.16V8.16z"
        transform="matrix(0.5093,-0.8605,0.8605,0.5093,-1.6481,26.602)"
  />
  <path style="fill:#ffffff"
        d="M15.25 8.16H13.53L14.39 4.17L15.25 8.16V8.16V8.16z"
        transform="matrix(0.8569,-0.5153,0.5153,0.8569,-2.3565,17.2458)"
  />
 </g>
</svg>
