<?xml version="1.0" encoding="UTF-8" standalone="yes"?>
<svg version="1.1" width="64" height="64" color-interpolation="linearRGB"
     xmlns:svg="http://www.w3.org/2000/svg" xmlns="http://www.w3.org/2000/svg">
 <g>
  <path style="fill:#020202"
        d="M1 9H63V55H1V9z"
        transform="matrix(1.0322,0,0,0.6956,-1.0322,1.7391)"
  />
  <path style="fill:#ffe700"
        d="M1 9H63V55H1V9z"
        transform="matrix(1.0322,0,0,0.1739,-1.0322,14.4347)"
  />
  <path style="fill:#de3807"
        d="M1 9H63V55H1V9z"
        transform="matrix(1.0322,0,0,0.1739,-1.0322,22.4347)"
  />
  <path style="fill:#ffe700"
        d="M1 9H63V55H1V9z"
        transform="matrix(1.0322,0,0,0.1739,-1.0322,38.4347)"
  />
  <path style="fill:#de3807"
        d="M1 9H63V55H1V9z"
        transform="matrix(1.0322,0,0,0.1739,-1.0322,46.4347)"
  />
  <path style="fill:none; stroke:#7e7e7e; stroke-width:1"
        d="M1 9H63V55H1V9z"
  />
  <path style="fill:#ffffff"
        d="M32 16C23.16 16 16 23.16 16 32C16 40.83 23.16 48 32 48C40.83 48 48 40.83 48 32C48 23.16 40.83 16 32 16z"
        transform="matrix(0.5,0,0,0.5,16,16)"
  />
  <path style="fill:#020202"
        d="M29 28H31C31 28 30 28 31 27C31 26 31 26 31 26C31 26 33 25 34 27C35 29 33 27 33 27C33 27 34 28 33 29C32 30 32 30 33 31C34 32 39 32 38 34C37 36 37 35 37 35V34H35C35 34 36 35 35 35C34 35 34 38 34 38L31 39L32 38H31C31 38 33 38 33 37C33 36 30 36 29 36C28.65 36 33 35 33 35C33 35 29 35 30 32C31 29 29 28 29 28z"
        transform="matrix(1,0,0,1,-1,0)"
  />
 </g>
</svg>
