<?xml version="1.0" encoding="UTF-8" standalone="yes"?>
<svg version="1.1" width="64" height="64" color-interpolation="linearRGB"
     xmlns:svg="http://www.w3.org/2000/svg" xmlns="http://www.w3.org/2000/svg">
 <g>
  <path style="fill:#ce2d3f"
        d="M1 9H63V55H1V9z"
        transform="matrix(1.0322,0,0,1.0434,-1.0322,-1.3913)"
  />
  <path style="fill:#0099b5"
        d="M1 9H63V55H1V9z"
        transform="matrix(1.0322,0,0,0.3478,-1.0322,4.8695)"
  />
  <path style="fill:#ffffff"
        d="M1 9H63V55H1V9z"
        transform="matrix(1.0322,0,0,0.3043,-1.0322,22.2608)"
  />
  <path style="fill:#1eb53a"
        d="M1 9H63V55H1V9z"
        transform="matrix(1.0322,0,0,0.3478,-1.0322,36.8695)"
  />
  <path style="fill:#ffffff"
        d="M70.39 32C70.39 26.69 66.1 22.4 60.79 22.4C55.49 22.4 51.19 26.69 51.19 32C51.19 37.3 55.49 41.6 60.79 41.6C66.1 41.6 70.39 37.3 70.39 32z"
        transform="matrix(0.6405,0.0304,-0.0304,0.6405,-29.5739,-6.4978)"
  />
  <path style="fill:#0099b5"
        d="M70.39 32C70.39 26.69 66.1 22.4 60.79 22.4C55.49 22.4 51.19 26.69 51.19 32C51.19 37.3 55.49 41.6 60.79 41.6C66.1 41.6 70.39 37.3 70.39 32z"
        transform="matrix(0.6331,0.03,-0.03,0.6331,-26.8918,-6.1962)"
  />
  <path style="fill:none; stroke:#7e7e7e; stroke-width:1"
        d="M1 9H63V55H1V9z"
  />
  <path style="fill:#ffffff"
        d="M1 9H63V55H1V9z"
        transform="matrix(0.0191,-0.0195,0.031,0.0303,12.5455,19.6529)"
  />
  <path style="fill:#ffffff"
        d="M1 9H63V55H1V9z"
        transform="matrix(0.0191,-0.0195,0.031,0.0303,17.5455,19.6529)"
  />
  <path style="fill:#ffffff"
        d="M1 9H63V55H1V9z"
        transform="matrix(0.0191,-0.0195,0.031,0.0303,17.5455,15.6529)"
  />
  <path style="fill:#ffffff"
        d="M1 9H63V55H1V9z"
        transform="matrix(0.0191,-0.0195,0.031,0.0303,22.5455,19.6529)"
  />
  <path style="fill:#ffffff"
        d="M1 9H63V55H1V9z"
        transform="matrix(0.0191,-0.0195,0.031,0.0303,22.5455,15.6529)"
  />
  <path style="fill:#ffffff"
        d="M1 9H63V55H1V9z"
        transform="matrix(0.0191,-0.0195,0.031,0.0303,22.5455,11.6529)"
  />
  <path style="fill:#ffffff"
        d="M1 9H63V55H1V9z"
        transform="matrix(0.0191,-0.0195,0.031,0.0303,27.5455,19.6529)"
  />
  <path style="fill:#ffffff"
        d="M1 9H63V55H1V9z"
        transform="matrix(0.0191,-0.0195,0.031,0.0303,27.5455,15.6529)"
  />
  <path style="fill:#ffffff"
        d="M1 9H63V55H1V9z"
        transform="matrix(0.0191,-0.0195,0.031,0.0303,27.5455,11.6529)"
  />
  <path style="fill:#ffffff"
        d="M1 9H63V55H1V9z"
        transform="matrix(0.0191,-0.0195,0.031,0.0303,32.5455,19.6529)"
  />
  <path style="fill:#ffffff"
        d="M1 9H63V55H1V9z"
        transform="matrix(0.0191,-0.0195,0.031,0.0303,32.5455,15.6529)"
  />
  <path style="fill:#ffffff"
        d="M1 9H63V55H1V9z"
        transform="matrix(0.0191,-0.0195,0.031,0.0303,32.5455,11.6529)"
  />
 </g>
</svg>
