<?xml version="1.0" encoding="UTF-8" standalone="yes"?>
<svg version="1.1" width="64" height="64" color-interpolation="linearRGB"
     xmlns:svg="http://www.w3.org/2000/svg" xmlns="http://www.w3.org/2000/svg">
 <g>
  <path style="fill:#d20f33"
        d="M1 9H63V55H1V9z"
        transform="matrix(1.0322,0,0,0.4347,-1.0322,4.0869)"
  />
  <path style="fill:#009542"
        d="M1 9H63V55H1V9z"
        transform="matrix(1.0322,0,0,0.4347,-1.0322,32.0869)"
  />
  <path style="fill:#000000"
        d="M0 8L32 26H64V38H32L0 56V8z"
  />
  <path style="fill:#ffce00"
        d="M0 12L32 30H64V34H32L0 52V12z"
  />
  <path style="fill:#000000"
        d="M0 64L39 32L0 -0"
        transform="matrix(0.7259,0,0,0.5149,-0.0926,15.7178)"
  />
  <path style="fill:none; stroke:#7e7e7e; stroke-width:1"
        d="M1 9H63V55H1V9z"
  />
  <path style="fill:none; stroke:#ffce00; stroke-width:2"
        d="M12 31C13 32 9 36 8 31C7.12 26.61 15 25 16 30C16.62 33.1 14 37 10 37"
        transform="matrix(1,0,0,1,-2,1)"
  />
 </g>
</svg>
