<?xml version="1.0" encoding="UTF-8" standalone="yes"?>
<svg version="1.1" width="64" height="64" color-interpolation="linearRGB"
     xmlns:svg="http://www.w3.org/2000/svg" xmlns="http://www.w3.org/2000/svg">
 <g>
  <path style="fill:#de362f"
        d="M1 9H63V55H1V9z"
        transform="matrix(1.0322,0,0,0.4347,-1.0322,4.0869)"
  />
  <path style="fill:#002295"
        d="M1 9H63V55H1V9z"
        transform="matrix(1.0322,0,0,0.4347,-1.0322,32.0869)"
  />
  <path style="fill:#ffffff"
        d="M0 8H14L32 24H64V40H32L14 56H0V8z"
  />
  <path style="fill:#007a4d"
        d="M0 8H8L32 28H64V36H32L8 56H0V8z"
  />
  <path style="fill:#010101"
        d="M0 64L39 32L0 -0"
        transform="matrix(0.5721,0,0,0.5149,-0.0926,15.7178)"
  />
  <path style="fill:none; stroke:#ffb510; stroke-width:5"
        d="M0 64L39 32L0 -0"
        transform="matrix(0.5621,0,0,0.5621,-0.2047,13.7504)"
  />
  <path style="fill:none; stroke:#7e7e7e; stroke-width:1"
        d="M1 9H63V55H1V9z"
  />
 </g>
</svg>
