<?xml version="1.0" encoding="UTF-8" standalone="yes"?>
<svg version="1.1" width="64" height="64" color-interpolation="linearRGB"
     xmlns:svg="http://www.w3.org/2000/svg" xmlns="http://www.w3.org/2000/svg">
 <g>
  <path style="fill:#319208"
        d="M1 9H63V55H1V9z"
        transform="matrix(1.0322,0,0,1.0434,-1.0322,-1.3913)"
  />
  <path style="fill:#ffd200"
        d="M1 9H63V55H1V9z"
        transform="matrix(1.0322,0,0,0.7608,-1.0322,8.1521)"
  />
  <path style="fill:#de2010"
        d="M1 9H63V55H1V9z"
        transform="matrix(1.0322,0,0,0.4565,-1.0322,17.8913)"
  />
  <path style="fill:#010101"
        d="M1 9H63V55H1V9z"
        transform="matrix(1.0322,0,0,0.1521,-1.0322,27.6304)"
  />
  <path style="fill:#ffffff"
        d="M0 64L54 32L0 -0"
        transform="matrix(0.625,0,0,0.75,0,7.9999)"
  />
  <path style="fill:none; stroke:#010101; stroke-width:4"
        d="M0 64L54 32L0 -0"
        transform="matrix(0.625,0,0,0.7201,0,8.9539)"
  />
  <path style="fill:none; stroke:#7e7e7e; stroke-width:1"
        d="M1 9H63V55H1V9z"
  />
  <path style="fill:#de2010"
        d="M36.78 29.48H45.35L48 21.33L50.64 29.48H59.21L52.28 34.51L54.93 42.66L48 37.63L41.06 42.66L43.71 34.51L36.78 29.48z"
        transform="matrix(0.8216,0,0,0.8216,-27.4397,4.8045)"
  />
  <path style="fill:#ffd200"
        d="M8 38L7 35C7 35 11 29 7 27C4 28 6 27 6 27C6 27 7 22 10 26C13 30 19 33 19 33H18L17 38H8z"
        transform="matrix(1,0,0,0.8524,0,4.6052)"
  />
 </g>
</svg>
